<svg width="323" height="26" viewBox="0 0 323 26" fill="none" xmlns="http://www.w3.org/2000/svg">
<path d="M9.77516e-05 25.72V3.63999H3.6401V-1.14441e-05H14.9201V3.63999H18.6001V14.84H14.9201V18.48H13.1601V21.72H16.7601V25.72H12.7601V22.12H9.0801V18.48H4.0401V25.72H9.77516e-05ZM4.0401 14.44H14.5201V4.03999H4.0401V14.44ZM27.0776 25.72V22.12H23.4376V3.63999H27.0776V-1.14441e-05H38.3576V3.63999H42.0376V7.63999H37.9576V4.03999H27.4776V10.88H34.7576V14.84H27.4776V21.72H37.9576V18.08H42.0376V22.12H38.3576V25.72H27.0776ZM54.1151 25.72V22.12H50.5151V14.84H46.8751V-1.14441e-05H50.9151V14.44H54.5151V21.72H57.7951V14.44H61.3951V-1.14441e-05H65.4751V14.84H61.7951V22.12H58.1951V25.72H54.1151ZM73.9526 25.72V22.12H70.3126V3.63999H73.9526V-1.14441e-05H85.2326V3.63999H88.9126V7.63999H84.8326V4.03999H74.3526V10.88H81.6326V14.84H74.3526V21.72H84.8326V18.08H88.9126V22.12H85.2326V25.72H73.9526ZM93.7501 25.72V21.72H97.3901V4.03999H93.7501V-1.14441e-05H105.07V4.03999H101.39V21.72H105.07V25.72H93.7501ZM113.562 25.72V22.12H109.922V-1.14441e-05H113.962V21.72H124.442V18.08H128.522V22.12H124.842V25.72H113.562ZM136.999 25.72V22.12H133.359V-1.14441e-05H137.399V21.72H147.879V18.08H151.959V22.12H148.279V25.72H136.999ZM160.437 25.72V22.12H156.797V3.63999H160.437V-1.14441e-05H171.717V3.63999H175.397V7.63999H171.317V4.03999H160.837V10.88H168.117V14.84H160.837V21.72H171.317V18.08H175.397V22.12H171.717V25.72H160.437ZM180.234 25.72V3.63999H183.874V-1.14441e-05H195.154V3.63999H198.834V14.84H195.154V18.48H193.394V21.72H196.994V25.72H192.994V22.12H189.314V18.48H184.274V25.72H180.234ZM184.274 14.44H194.754V4.03999H184.274V14.44ZM202.192 17.24V13.2H213.472V17.24H202.192ZM224.232 25.72V22.12H220.632V14.84H216.992V-1.14441e-05H221.032V14.44H224.632V21.72H227.912V14.44H231.512V-1.14441e-05H235.592V14.84H231.912V22.12H228.312V25.72H224.232ZM244.07 25.72V22.12H240.43V3.63999H244.07V-1.14441e-05H255.35V3.63999H259.03V22.12H255.35V25.72H244.07ZM244.47 21.72H254.95V4.03999H244.47V21.72ZM267.507 25.72V22.12H263.867V-1.14441e-05H267.907V21.72H278.387V-1.14441e-05H282.467V22.12H278.787V25.72H267.507ZM290.945 25.72V22.12H287.305V18.08H291.345V21.72H301.825V14.84H290.945V11.24H287.305V3.63999H290.945V-1.14441e-05H302.225V3.63999H305.905V7.63999H301.825V4.03999H291.345V10.88H302.225V14.44H305.905V22.12H302.225V25.72H290.945ZM318.75 18.48V-1.14441e-05H322.79V18.48H318.75ZM318.75 25.72V21.72H322.79V25.72H318.75Z" fill="black"/>
</svg>
