<svg width="43" height="40" viewBox="0 0 43 40" fill="none" xmlns="http://www.w3.org/2000/svg">
<path d="M7.81836 35.1819H35.182V39.091H7.81836V35.1819ZM15.6365 27.3637H19.5456V35.1819H15.6365V27.3637ZM23.4547 27.3637H27.3638V35.1819H23.4547V27.3637ZM7.81836 23.4546H11.7275V35.1819H7.81836V23.4546ZM31.2729 23.4546H35.182V35.1819H31.2729V23.4546Z" fill="#DD2121"/>
<path d="M3.90909 23.4545H11.7273V27.3636H3.90909V23.4545ZM0 0H3.90909V27.3636H0V0ZM39.0909 0H43V27.3636H39.0909V0ZM3.90909 0H39.0909V3.90909H3.90909V0ZM31.2727 23.4545H39.0909V27.3636H31.2727V23.4545ZM13.6818 9.77273H17.5909V17.5909H13.6818V9.77273ZM25.4091 9.77273H29.3182V17.5909H25.4091V9.77273Z" fill="#DD2121"/>
</svg>
