<svg width="722" height="47" viewBox="0 0 722 47" fill="none" xmlns="http://www.w3.org/2000/svg">
<path d="M4.34406 20.6879V18.5279H2.18406V14.1599H5.8651e-05V5.2559H2.42406V13.9199H4.58406V18.2879H6.55206V13.9199H8.71206V5.2559H11.1601V14.1599H8.95206V18.5279H6.79206V20.6879H4.34406ZM16.2466 20.6879V18.5279H14.0626V7.4399H16.2466V5.2559H23.0146V7.4399H25.2226V18.5279H23.0146V20.6879H16.2466ZM16.4866 18.2879H22.7746V7.6799H16.4866V18.2879ZM30.3091 20.6879V18.5279H28.1251V5.2559H30.5491V18.2879H36.8371V5.2559H39.2851V18.5279H37.0771V20.6879H30.3091ZM44.3716 20.6879V18.5279H42.1876V16.1039H44.6116V18.2879H50.8996V14.1599H44.3716V11.9999H42.1876V7.4399H44.3716V5.2559H51.1396V7.4399H53.3476V9.8399H50.8996V7.6799H44.6116V11.7839H51.1396V13.9199H53.3476V18.5279H51.1396V20.6879H44.3716ZM61.0547 20.6879V9.5999H63.2387V7.4399H65.3987V5.2559H67.8467V7.4399H70.0067V9.5999H72.2147V20.6879H69.7667V16.3439H63.4787V20.6879H61.0547ZM63.4787 13.9199H69.7667V9.8399H67.6067V7.6799H65.6387V9.8399H63.4787V13.9199ZM78.9925 20.6879V18.5279H76.8325V14.1599H74.6485V5.2559H77.0725V13.9199H79.2325V18.2879H81.2005V13.9199H83.3605V5.2559H85.8085V14.1599H83.6005V18.5279H81.4405V20.6879H78.9925ZM90.895 20.6879V18.5279H88.711V7.4399H90.895V5.2559H97.663V7.4399H99.871V9.8399H97.423V7.6799H91.135V11.7839H95.503V14.1599H91.135V18.2879H97.423V16.1039H99.871V18.5279H97.663V20.6879H90.895ZM104.957 20.6879V18.5279H102.773V13.9199H104.957V11.7839H111.485V7.6799H105.197V9.8399H102.773V5.2559H111.725V7.4399H113.933V11.9999H111.725V14.1599H105.197V18.2879H111.485V16.1039H113.933V20.6879H104.957ZM123.825 20.6879V18.5279H121.641V7.4399H123.825V5.2559H130.593V7.4399H132.801V9.8399H130.353V7.6799H124.065V11.7839H128.433V14.1599H124.065V18.2879H130.353V16.1039H132.801V18.5279H130.593V20.6879H123.825ZM137.887 20.6879V18.5279H135.703V7.4399H137.887V5.2559H144.655V7.4399H146.863V11.9999H144.415V7.6799H138.127V18.2879H144.415V13.9199H146.863V18.5279H144.655V20.6879H137.887ZM149.766 20.6879V5.2559H152.19V11.7839H154.11V9.5999H156.558V11.7839H158.478V5.2559H160.926V20.6879H158.478V14.1599H152.19V20.6879H149.766ZM166.012 20.6879V18.5279H163.828V7.4399H166.012V5.2559H172.78V7.4399H174.988V18.5279H172.78V20.6879H166.012ZM166.252 18.2879H172.54V7.6799H166.252V18.2879ZM180.075 20.6879V18.5279H177.891V5.2559H180.315V18.2879H186.603V5.2559H189.051V18.5279H186.843V20.6879H180.075ZM194.137 20.6879V18.5279H191.953V7.4399H194.137V5.2559H200.905V7.4399H203.113V9.8399H200.665V7.6799H194.377V11.7839H198.745V14.1599H194.377V18.2879H200.665V16.1039H203.113V18.5279H200.905V20.6879H194.137ZM195.433 3.4799V2.1839H196.513V1.1039H197.617V-9.82285e-05H198.937V1.3199H197.857V2.4239H196.753V3.4799H195.433ZM207.096 22.5599V21.2159H208.2V20.3999H206.016V17.9759H208.44V20.1599H209.52V21.4559H208.44V22.5599H207.096ZM221.563 20.6879V18.5279H219.403V14.1599H217.219V5.2559H219.643V13.9199H221.803V18.2879H223.771V13.9199H225.931V5.2559H228.379V14.1599H226.171V18.5279H224.011V20.6879H221.563ZM233.465 20.6879V18.5279H231.281V7.4399H233.465V5.2559H240.233V7.4399H242.441V18.5279H240.233V20.6879H233.465ZM233.705 18.2879H239.993V7.6799H233.705V18.2879ZM249.219 20.6879V7.6799H247.299V9.8399H244.875V7.4399H247.059V5.2559H253.827V7.4399H256.035V9.8399H253.587V7.6799H251.667V20.6879H249.219ZM257.977 20.6879V7.4399H260.161V5.2559H266.929V7.4399H269.137V14.1599H266.929V16.3439H265.873V18.2879H268.033V20.6879H265.633V18.5279H263.425V16.3439H260.401V20.6879H257.977ZM260.401 13.9199H266.689V7.6799H260.401V13.9199ZM274.223 20.6879V18.5279H272.039V7.4399H274.223V5.2559H280.991V7.4399H283.199V9.8399H280.751V7.6799H274.463V11.7839H278.831V14.1599H274.463V18.2879H280.751V16.1039H283.199V18.5279H280.991V20.6879H274.223ZM293.09 20.6879V18.5279H290.906V7.4399H293.09V5.2559H299.858V7.4399H302.066V11.9999H299.618V7.6799H293.33V18.2879H299.618V13.9199H302.066V18.5279H299.858V20.6879H293.09ZM307.153 20.6879V18.5279H304.969V7.4399H307.153V5.2559H313.921V7.4399H316.129V18.5279H313.921V20.6879H307.153ZM307.393 18.2879H313.681V7.6799H307.393V18.2879ZM319.031 20.6879V7.4399H321.215V5.2559H327.983V7.4399H330.191V14.1599H327.983V16.3439H326.927V18.2879H329.087V20.6879H326.687V18.5279H324.479V16.3439H321.455V20.6879H319.031ZM321.455 13.9199H327.743V7.6799H321.455V13.9199ZM333.094 20.6879V7.4399H335.278V5.2559H342.046V7.4399H344.254V14.1599H342.046V16.3439H335.518V20.6879H333.094ZM335.518 13.9199H341.806V7.6799H335.518V13.9199ZM349.34 20.6879V18.5279H347.156V16.1039H349.58V18.2879H355.868V14.1599H349.34V11.9999H347.156V7.4399H349.34V5.2559H356.108V7.4399H358.316V9.8399H355.868V7.6799H349.58V11.7839H356.108V13.9199H358.316V18.5279H356.108V20.6879H349.34ZM366.023 20.6879V9.5999H368.207V7.4399H370.367V5.2559H372.815V7.4399H374.975V9.5999H377.183V20.6879H374.735V16.3439H368.447V20.6879H366.023ZM368.447 13.9199H374.735V9.8399H372.575V7.6799H370.607V9.8399H368.447V13.9199ZM387.075 20.6879V18.5279H384.891V7.4399H387.075V5.2559H393.843V7.4399H396.051V9.8399H393.603V7.6799H387.315V11.7839H391.683V14.1599H387.315V18.2879H393.603V16.1039H396.051V18.5279H393.843V20.6879H387.075ZM388.371 3.4799V2.1839H389.451V1.1039H390.555V-9.82285e-05H391.875V1.3199H390.795V2.4239H389.691V3.4799H388.371ZM403.297 20.6879V7.6799H401.377V9.8399H398.953V7.4399H401.137V5.2559H407.905V7.4399H410.113V9.8399H407.665V7.6799H405.745V20.6879H403.297ZM415.2 20.6879V18.5279H413.016V7.4399H415.2V5.2559H421.968V7.4399H424.176V9.8399H421.728V7.6799H415.44V11.7839H419.808V14.1599H415.44V18.2879H421.728V16.1039H424.176V18.5279H421.968V20.6879H415.2ZM416.496 3.4799V2.1839H417.576V1.1039H418.68V-9.82285e-05H420V1.3199H418.92V2.4239H417.816V3.4799H416.496ZM431.883 20.6879V7.4399H434.067V5.2559H440.835V7.4399H443.043V14.1599H440.835V16.3439H439.779V18.2879H441.939V20.6879H439.539V18.5279H437.331V16.3439H434.307V20.6879H431.883ZM434.307 13.9199H440.595V7.6799H434.307V13.9199ZM445.945 20.6879V9.5999H448.129V7.4399H450.289V5.2559H452.737V7.4399H454.897V9.5999H457.105V20.6879H454.657V16.3439H448.369V20.6879H445.945ZM448.369 13.9199H454.657V9.8399H452.497V7.6799H450.529V9.8399H448.369V13.9199ZM460.008 20.6879V7.4399H462.192V5.2559H464.592V7.4399H466.8V11.7839H468.72V7.4399H470.928V5.2559H473.352V7.4399H475.512V20.6879H473.112V7.6799H471.168V11.9999H468.96V18.5279H466.56V11.9999H464.352V7.6799H462.432V20.6879H460.008ZM480.59 20.6879V18.5279H478.406V7.4399H480.59V5.2559H487.358V7.4399H489.566V9.8399H487.118V7.6799H480.83V11.7839H485.198V14.1599H480.83V18.2879H487.118V16.1039H489.566V18.5279H487.358V20.6879H480.59ZM492.469 20.6879V5.2559H494.893V7.4399H497.053V9.5999H499.261V16.1039H501.181V5.2559H503.629V20.6879H501.181V18.5279H499.021V16.3439H496.813V9.8399H494.893V20.6879H492.469ZM508.715 20.6879V18.5279H506.531V7.4399H508.715V5.2559H515.483V7.4399H517.691V9.8399H515.243V7.6799H508.955V11.7839H513.323V14.1599H508.955V18.2879H515.243V16.1039H517.691V18.5279H515.483V20.6879H508.715ZM510.011 3.4799V2.1839H511.091V1.1039H512.195V-9.82285e-05H513.515V1.3199H512.435V2.4239H511.331V3.4799H510.011ZM527.582 20.6879V18.5279H525.398V16.1039H527.822V18.2879H534.11V14.1599H527.582V11.9999H525.398V7.4399H527.582V5.2559H534.35V7.4399H536.558V9.8399H534.11V7.6799H527.822V11.7839H534.35V13.9199H536.558V18.5279H534.35V20.6879H527.582ZM541.645 20.6879V18.5279H539.461V5.2559H541.885V18.2879H548.173V5.2559H550.621V18.5279H548.413V20.6879H541.645ZM553.523 20.6879V7.4399H555.707V5.2559H562.475V7.4399H564.683V14.1599H562.475V16.3439H561.419V18.2879H563.579V20.6879H561.179V18.5279H558.971V16.3439H555.947V20.6879H553.523ZM555.947 13.9199H562.235V7.6799H555.947V13.9199ZM574.575 20.6879V18.5279H572.391V5.2559H574.815V18.2879H581.103V16.1039H583.551V18.5279H581.343V20.6879H574.575ZM588.637 20.6879V18.5279H586.453V7.4399H588.637V5.2559H595.405V7.4399H597.613V9.8399H595.165V7.6799H588.877V11.7839H593.245V14.1599H588.877V18.2879H595.165V16.1039H597.613V18.5279H595.405V20.6879H588.637ZM605.32 20.6879V7.4399H607.504V5.2559H609.904V7.4399H612.112V11.7839H614.032V7.4399H616.24V5.2559H618.664V7.4399H620.824V20.6879H618.424V7.6799H616.48V11.9999H614.272V18.5279H611.872V11.9999H609.664V7.6799H607.744V20.6879H605.32ZM625.903 20.6879V18.5279H623.719V7.4399H625.903V5.2559H632.671V7.4399H634.879V18.5279H632.671V20.6879H625.903ZM626.143 18.2879H632.431V7.6799H626.143V18.2879ZM641.657 20.6879V7.6799H639.737V9.8399H637.313V7.4399H639.497V5.2559H646.265V7.4399H648.473V9.8399H646.025V7.6799H644.105V20.6879H641.657ZM652.832 20.6879V18.5279H650.648V7.4399H652.832V5.2559H659.6V7.4399H661.808V18.5279H659.6V20.6879H652.832ZM653.072 18.2879H659.36V7.6799H653.072V18.2879ZM664.711 20.6879V7.4399H666.895V5.2559H669.295V7.4399H671.503V11.7839H673.423V7.4399H675.631V5.2559H678.055V7.4399H680.215V20.6879H677.815V7.6799H675.871V11.9999H673.663V18.5279H671.263V11.9999H669.055V7.6799H667.135V20.6879H664.711ZM685.293 20.6879V18.5279H683.109V7.4399H685.293V5.2559H692.061V7.4399H694.269V18.5279H692.061V20.6879H685.293ZM685.533 18.2879H691.821V7.6799H685.533V18.2879ZM701.047 20.6879V7.6799H699.127V9.8399H696.703V7.4399H698.887V5.2559H705.655V7.4399H707.863V9.8399H705.415V7.6799H703.495V20.6879H701.047ZM712.223 20.6879V18.5279H710.039V7.4399H712.223V5.2559H718.991V7.4399H721.199V18.5279H718.991V20.6879H712.223ZM712.463 18.2879H718.751V7.6799H712.463V18.2879ZM65.1094 46.6879V33.4399H67.2934V31.2559H69.6934V33.4399H71.9014V37.7839H73.8214V33.4399H76.0294V31.2559H78.4534V33.4399H80.6134V46.6879H78.2134V33.6799H76.2694V37.9999H74.0614V44.5279H71.6614V37.9999H69.4534V33.6799H67.5334V46.6879H65.1094ZM83.2735 46.6879V35.5999H85.4575V33.4399H87.6175V31.2559H90.0655V33.4399H92.2255V35.5999H94.4335V46.6879H91.9855V42.3439H85.6975V46.6879H83.2735ZM85.6975 39.9199H91.9855V35.8399H89.8255V33.6799H87.8575V35.8399H85.6975V39.9199ZM97.336 46.6879V44.2879H99.52V33.6799H97.336V31.2559H104.128V33.6799H101.92V44.2879H104.128V46.6879H97.336ZM109.223 46.6879V44.5279H107.039V42.1039H109.463V44.2879H115.751V40.1599H109.223V37.9999H107.039V33.4399H109.223V31.2559H115.991V33.4399H118.199V35.8399H115.751V33.6799H109.463V37.7839H115.991V39.9199H118.199V44.5279H115.991V46.6879H109.223ZM128.09 46.6879V44.5279H125.906V31.2559H128.33V44.2879H134.618V42.1039H137.066V44.5279H134.858V46.6879H128.09ZM142.153 46.6879V44.5279H139.969V33.4399H142.153V31.2559H148.921V33.4399H151.129V35.8399H148.681V33.6799H142.393V37.7839H146.761V40.1599H142.393V44.2879H148.681V42.1039H151.129V44.5279H148.921V46.6879H142.153ZM158.836 46.6879V33.4399H161.02V31.2559H167.788V33.4399H169.996V40.1599H167.788V42.3439H166.732V44.2879H168.892V46.6879H166.492V44.5279H164.284V42.3439H161.26V46.6879H158.836ZM161.26 39.9199H167.548V33.6799H161.26V39.9199ZM175.082 46.6879V44.5279H172.898V33.4399H175.082V31.2559H181.85V33.4399H184.058V35.8399H181.61V33.6799H175.322V37.7839H179.69V40.1599H175.322V44.2879H181.61V42.1039H184.058V44.5279H181.85V46.6879H175.082ZM189.145 46.6879V44.5279H186.961V42.1039H189.385V44.2879H195.673V40.1599H189.145V37.9999H186.961V33.4399H189.145V31.2559H195.913V33.4399H198.121V35.8399H195.673V33.6799H189.385V37.7839H195.913V39.9199H198.121V44.5279H195.913V46.6879H189.145ZM204.899 46.6879V33.6799H202.979V35.8399H200.555V33.4399H202.739V31.2559H209.507V33.4399H211.715V35.8399H209.267V33.6799H207.347V46.6879H204.899ZM216.075 46.6879V44.5279H213.891V33.4399H216.075V31.2559H222.843V33.4399H225.051V35.8399H222.603V33.6799H216.315V37.7839H220.683V40.1599H216.315V44.2879H222.603V42.1039H225.051V44.5279H222.843V46.6879H216.075ZM232.758 46.6879V31.2559H239.55V33.4399H241.71V35.5999H243.918V42.3439H241.71V44.5279H239.55V46.6879H232.758ZM235.182 44.2879H239.31V42.1039H241.47V35.8399H239.31V33.6799H235.182V44.2879ZM249.004 46.6879V44.5279H246.82V33.4399H249.004V31.2559H255.772V33.4399H257.98V35.8399H255.532V33.6799H249.244V37.7839H253.612V40.1599H249.244V44.2879H255.532V42.1039H257.98V44.5279H255.772V46.6879H249.004ZM270.032 46.6879V44.5279H267.872V40.1599H265.688V31.2559H268.112V39.9199H270.272V44.2879H272.24V39.9199H274.4V31.2559H276.848V40.1599H274.64V44.5279H272.48V46.6879H270.032ZM281.934 46.6879V44.5279H279.75V33.4399H281.934V31.2559H288.702V33.4399H290.91V44.5279H288.702V46.6879H281.934ZM282.174 44.2879H288.462V33.6799H282.174V44.2879ZM295.997 46.6879V44.5279H293.813V42.1039H296.237V44.2879H302.525V40.1599H295.997V37.9999H293.813V33.4399H295.997V31.2559H302.765V33.4399H304.973V35.8399H302.525V33.6799H296.237V37.7839H302.765V39.9199H304.973V44.5279H302.765V46.6879H295.997ZM312.68 46.6879V35.5999H314.864V33.4399H317.024V31.2559H319.472V33.4399H321.632V35.5999H323.84V46.6879H321.392V42.3439H315.104V46.6879H312.68ZM315.104 39.9199H321.392V35.8399H319.232V33.6799H317.264V35.8399H315.104V39.9199ZM326.742 46.6879V31.2559H335.694V33.4399H337.902V35.8399H335.454V33.6799H329.166V37.7839H333.534V40.1599H329.166V46.6879H326.742ZM340.336 46.6879V31.2559H349.288V33.4399H351.496V35.8399H349.048V33.6799H342.76V37.7839H347.128V40.1599H342.76V46.6879H340.336ZM352.969 46.6879V35.5999H355.153V33.4399H357.313V31.2559H359.761V33.4399H361.921V35.5999H364.129V46.6879H361.681V42.3439H355.393V46.6879H352.969ZM355.393 39.9199H361.681V35.8399H359.521V33.6799H357.553V35.8399H355.393V39.9199ZM367.031 46.6879V44.2879H369.215V33.6799H367.031V31.2559H373.823V33.6799H371.615V44.2879H373.823V46.6879H367.031ZM376.734 46.6879V33.4399H378.918V31.2559H385.686V33.4399H387.894V40.1599H385.686V42.3439H384.63V44.2879H386.79V46.6879H384.39V44.5279H382.182V42.3439H379.158V46.6879H376.734ZM379.158 39.9199H385.446V33.6799H379.158V39.9199ZM392.981 46.6879V44.5279H390.797V33.4399H392.981V31.2559H399.749V33.4399H401.957V35.8399H399.509V33.6799H393.221V37.7839H397.589V40.1599H393.221V44.2879H399.509V42.1039H401.957V44.5279H399.749V46.6879H392.981ZM407.043 46.6879V44.5279H404.859V42.1039H407.283V44.2879H413.571V40.1599H407.043V37.9999H404.859V33.4399H407.043V31.2559H413.811V33.4399H416.019V35.8399H413.571V33.6799H407.283V37.7839H413.811V39.9199H416.019V44.5279H413.811V46.6879H407.043ZM425.911 46.6879V44.5279H423.727V33.4399H425.911V31.2559H432.679V33.4399H434.887V35.8399H432.439V33.6799H426.151V37.7839H430.519V40.1599H426.151V44.2879H432.439V42.1039H434.887V44.5279H432.679V46.6879H425.911ZM439.973 46.6879V44.5279H437.789V42.1039H440.213V44.2879H446.501V40.1599H439.973V37.9999H437.789V33.4399H439.973V31.2559H446.741V33.4399H448.949V35.8399H446.501V33.6799H440.213V37.7839H446.741V39.9199H448.949V44.5279H446.741V46.6879H439.973ZM455.727 46.6879V33.6799H453.807V35.8399H451.383V33.4399H453.567V31.2559H460.335V33.4399H462.543V35.8399H460.095V33.6799H458.175V46.6879H455.727ZM470.25 46.6879V33.4399H472.434V31.2559H479.202V33.4399H481.41V40.1599H479.202V42.3439H472.674V46.6879H470.25ZM472.674 39.9199H478.962V33.6799H472.674V39.9199ZM486.497 46.6879V44.5279H484.313V33.4399H486.497V31.2559H493.265V33.4399H495.473V35.8399H493.025V33.6799H486.737V37.7839H491.105V40.1599H486.737V44.2879H493.025V42.1039H495.473V44.5279H493.265V46.6879H486.497ZM498.375 46.6879V33.4399H500.559V31.2559H507.327V33.4399H509.535V40.1599H507.327V42.3439H506.271V44.2879H508.431V46.6879H506.031V44.5279H503.823V42.3439H500.799V46.6879H498.375ZM500.799 39.9199H507.087V33.6799H500.799V39.9199ZM512.438 46.6879V31.2559H519.23V33.4399H521.39V35.5999H523.598V42.3439H521.39V44.5279H519.23V46.6879H512.438ZM514.862 44.2879H518.99V42.1039H521.15V35.8399H518.99V33.6799H514.862V44.2879ZM528.684 46.6879V44.5279H526.5V31.2559H528.924V44.2879H535.212V31.2559H537.66V44.5279H535.452V46.6879H528.684ZM545.367 46.6879V35.5999H547.551V33.4399H549.711V31.2559H552.159V33.4399H554.319V35.5999H556.527V46.6879H554.079V42.3439H547.791V46.6879H545.367ZM547.791 39.9199H554.079V35.8399H551.919V33.6799H549.951V35.8399H547.791V39.9199ZM566.418 46.6879V44.5279H564.234V39.9199H566.658V44.2879H572.946V33.6799H566.418V31.2559H573.186V33.4399H575.394V44.5279H573.186V46.6879H566.418ZM578.297 46.6879V35.5999H580.481V33.4399H582.641V31.2559H585.089V33.4399H587.249V35.5999H589.457V46.6879H587.009V42.3439H580.721V46.6879H578.297ZM580.721 39.9199H587.009V35.8399H584.849V33.6799H582.881V35.8399H580.721V39.9199ZM592.359 46.6879V33.4399H594.543V31.2559H596.943V33.4399H599.151V37.7839H601.071V33.4399H603.279V31.2559H605.703V33.4399H607.863V46.6879H605.463V33.6799H603.519V37.9999H601.311V44.5279H598.911V37.9999H596.703V33.6799H594.783V46.6879H592.359ZM610.523 46.6879V35.5999H612.707V33.4399H614.867V31.2559H617.315V33.4399H619.475V35.5999H621.683V46.6879H619.235V42.3439H612.947V46.6879H610.523ZM612.947 39.9199H619.235V35.8399H617.075V33.6799H615.107V35.8399H612.947V39.9199ZM624.586 46.6879V44.2879H626.77V33.6799H624.586V31.2559H631.378V33.6799H629.17V44.2879H631.378V46.6879H624.586ZM636.473 46.6879V44.5279H634.289V42.1039H636.713V44.2879H643.001V40.1599H636.473V37.9999H634.289V33.4399H636.473V31.2559H643.241V33.4399H645.449V35.8399H643.001V33.6799H636.713V37.7839H643.241V39.9199H645.449V44.5279H643.241V46.6879H636.473ZM648.352 46.3999V43.9759H650.776V46.3999H648.352ZM653.672 46.3999V43.9759H656.096V46.3999H653.672Z" fill="#DD2121"/>
</svg>
