<?xml version="1.0" encoding="UTF-8"?>
<svg id="Calque_1" xmlns="http://www.w3.org/2000/svg" version="1.1" viewBox="0 0 2267.72 1700.79">
  <!-- Generator: Adobe Illustrator 30.1.0, SVG Export Plug-In . SVG Version: 2.1.1 Build 136)  -->
  <defs>
    <style>
      .st0 {
        fill: #1b514d;
      }

      .st1 {
        fill: #141515;
      }
    </style>
  </defs>
  <path class="st1" d="M1179.5,676.6l-45.81.1-.22,46.22-45.96.37-.11-46.41-46.02.04-.42,22.37-22.95.5-.06,39.47c0,1.79-.67,5.37,1.24,6.77l44.82.12.49-22.67,23.1-.13-.32,22.41c-7.82,2.61-22.81-3.52-22.99,4.91l-.4,18.54-22.71.38.04,68.97,22.74.62.54,22.37,22.62.61.42,23,45.8.31.24-23.29c7.82.06,15.61-.99,23.03.25l.44,67.92c-1.13-.37-2.22.97-3.69.96l-19.5-.16-.37-22.84-45.83.07-.52,23.76c-7.71-1.46-14.97-.82-22.76-.65l-.43,45.8-22.7.38.31,46.4,22.46.44-.28,22.24-41.78.29c-1.35,0-2.7.49-3.39,1.1-1.11.97-1.84,18.9.48,21.82l22.17.71.05,22.48,22.79.48.17,23.1,92.83.02.39-23.21,22.6-.17.31-22.64,23.22-.43-.47-21.87c-.03-1.24-3.86-1.38-5.1-1.39l-40.66-.19c-.47-7.77-.5-14.68-.01-22.12,5.28-1.29,19.38.64,21.62-1.09,1.04-.8,1.25-2.26,1.26-3.98l.03-41.93-23.08-.27-.11-40.87c0-1.84.41-3.38,1.17-5.03,6.87-.26,13.68-.44,21.63.06l.16,46.19,22.99.06.18,45.92,23.2.45.03,46.08,22.96.16.05,46.08,23.04.08.23,23.15,115.6-.06.19-23.04,22.97-.13-.1,23-22.89.18-.47,23.17-115.32-.05-.24-23.14-22.79-.12-.4-23.1h-22.81s-.11-46.23-.11-46.23l-23.12.09-.05,23.05-23.03.06-.44,22.69-22.57.48-.53,23.06-92.12-.03-.23-23.03-22.89-.16-.5-23.03-22.71-.26-.36-22.68-22.85-.18-.27,46.23h-22.8s-.2-45.99-.2-45.99l23.4-.16-.14-46.1,22.95-.53.29-46.03,22.95-.11.1-46.04,23.07-.17.05-69.49-23.02-.18-.38-22.99-22.53-.14-.46-22.89-22.69.05-23.04-.07-.55-23.14-46.2-.05-.2-22.92-22.96-.62-.34-22.68-22.78-.35-.36-22.72-69.12-.28.14-23.02,92.35.13.19,22.79,22.85.19.3,22.81,22.95.43.2,22.96,46.12.31.37,22.98,22.78-.27-.16-45.83-22.99-.32-.02-92.42-23.09-.19-.28-22.86-22.86-.2-.09-22.96-22.99-.17-.18-22.77-23.04-.54.03-45.94,23.09.09.06,22.66,23.09.47.32,22.82,22.82.22.36,22.71,22.79.41.13,46.17,23.09.17.24,22.93,22.65-.24.29-22.68,22.96-.38-.02-22.61-23.02-.35-.06-46.13,22.97-.04.32,22.68,22.97.37.34,46.26,46.04-.12.02-46.1,22.95-.32.29-22.7,23.06.15-.09,45.94-22.79.16c-.34,7.85-.43,15.23.04,23l22.71.19c-.07,8.05.74,15.55-.4,22.84Z"/>
  <path class="st0" d="M1157.05,930.34c.88.56,1.09.94,1.15,1.2-.76,1.65-1.17,3.19-1.17,5.03l.11,40.87,23.08.27-.03,41.93c0,1.73-.22,3.19-1.26,3.98-2.24,1.72-16.35-.21-21.62,1.09-.49,7.45-.46,14.35.01,22.12l40.66.19c1.24,0,5.07.15,5.1,1.39l.47,21.87-23.22.43-.31,22.64-22.6.17-.39,23.21-92.83-.02-.17-23.1-22.79-.48-.05-22.48-22.17-.71c-2.32-2.92-1.59-20.85-.48-21.82.69-.61,2.04-1.09,3.39-1.1l41.78-.29.28-22.24-22.46-.44-.31-46.4,22.7-.38.43-45.8c7.79-.18,15.06-.81,22.76.65l.52-23.76,45.83-.07.37,22.84,19.5.16c1.48.01,2.56-1.33,3.69-.96Z"/>
  <path class="st0" d="M1179.5,676.6l.79.09c.64,4.47-3.42,24.66,4.08,23.04l18.94.09-.03,46.38-46.79.21.87,22.87,22.51.4.41,69.03c-.25,0-.51.03-.76.04-7.25.32-14.59-.43-22.2.55-.19,5.31-1.08,20.3.73,22.39-.5.22-.97.47-1.44.75-7.42-1.25-15.21-.19-23.03-.25l-.24,23.29-45.8-.31-.42-23-22.62-.61-.54-22.37-22.74-.62-.04-68.97,22.71-.38.4-18.54c.18-8.43,15.17-2.3,22.99-4.91l.32-22.41-23.1.13-.49,22.67-44.82-.12c-1.91-1.4-1.24-4.98-1.24-6.77l.06-39.47,22.95-.5.42-22.37,46.02-.04.11,46.41,45.96-.37.22-46.22,45.81-.1ZM1156.58,745.73l-.04-22.43-22.94.13.25,22.17,22.73.12Z"/>
  <path class="st1" d="M1249.27,816.67c-7.39-2.1-15.17-.66-22.73-.73s-15-.77-23.21-.18l-.18,22.74c-7.87.5-15.4.34-22.87.2l-.41-69.03-22.51-.4-.87-22.87,46.79-.21.03-46.38-18.94-.09c-7.5,1.62-3.45-18.57-4.08-23.04,7.28.8,14.79.25,22.65-.24l.38-22.71,22.92-.37.26-46.1,22.86-.41.36-22.58,22.76-.38.17-22.61,22.95-.39.42-23,22.86.16-.2,46.01-22.63.3-.39,22.73-22.91.7-.33,22.58-22.74.44-.58,22.76-22.64.29-.19,92.18-23.06.3.05,46.06,22.87-.11.62-22.92,45.68-.1.23-22.93,22.92-.45.41-22.65,22.66-.4.31-22.86h92.58s-.24,23.12-.24,23.12l-69.05.04-.28,22.75-22.91.43-.28,22.81-22.68.38-.53,22.91-45.98.25-.3,23.99Z"/>
  <path class="st0" d="M1249.27,816.67l.5,22.11,22.43.32.53,18.91c.04,1.47.55,2.96,1.37,3.49.75.49,20.39.81,21.33-.76l.97,1.22-.09,22.72c8.26.1,15.48.58,22.85.46l-.22,23.04,23.14.13c.35,7.71-.73,15.27.5,22.94l22.51.21.22,21.05c.01,1.18.74,2.63,1.48,2.79-4.46-.93,21.08-1.08,21.47-.66l.08,23.07,23.12.11.09,22.95-23.11-.14-.07-23.02-23.03-.17-.35-22.55-22.72-.6-.4-22.85-22.86-.37-.26-22.78-22.74-.26-.3-22.86-23.11-.43-.18-22.4-22.85-.45-.34-22.92-22.8-.45.12-22.57c7.57.07,15.34-1.37,22.73.73Z"/>
  <path class="st0" d="M1411.45,1116.55l.05-115.55,23.09-.04.11,115.26c-7.93.82-15.6.29-23.25.33Z"/>
  <path class="st0" d="M809.7,1116.2c-8.29.69-15.32.49-23.23.17v-115.55s23.15.1,23.15.1l.08,115.28Z"/>
  <polygon class="st1" points="948.48 1162.8 833.11 1162.9 832.85 1139.75 948.43 1139.76 948.61 1116.64 971.62 1116.54 971.68 1139.32 948.42 1139.66 948.48 1162.8"/>
  <path class="st1" d="M949.35,839.39c-.89,7.37-.59,14.85.03,22.24l-.98.97c-7.29-.72-14.73-.44-22.58.19-1,7.63-.76,14.38-.42,21.92-8.1,0-15.59.26-23.1.29l-23.03.09c-.43,8.5-.05,15.97,0,23.41l-46.38-.21-.3,22.85-46.07.31-.04-23.09,46.27-.18.32-22.95,46.13-.38.07-22.92,45.98-.11.32-22.7c8.39-1.18,16.18.3,23.78.27Z"/>
  <path class="st1" d="M1342.37,884.77l-23.22.36c-7.37.12-14.59-.36-22.85-.46l.09-22.72,45.55.05.42,22.76Z"/>
  <path class="st1" d="M1388.41,905.39c-1.11.29-1.31,1.95-1.24,2.95l-45.04-.14c-.1-8.54-.43-15.99.25-23.43l45.82.25.21,20.37Z"/>
  <path class="st1" d="M1388.33,909.81c.45-.47.87-.96,1.26-1.48h44.93s-.1,23.05-.1,23.05l-46.05-.15-.04-21.42Z"/>
  <path class="st0" d="M995.24,815.75c-.79,7.35-.28,14.77-.19,22.72l-23.57.24.06,23.11c-7.9.19-15.02.39-22.16-.18-.62-7.39-.93-14.87-.03-22.24,7.19-.03,14.09-1.12,22.43-.47-.66-8.53.6-15.74.42-23.23l23.04.07Z"/>
  <path class="st0" d="M948.4,862.6l-.05,22.14-22.92.21-.4,23.17-22.73.05.02-23.18c7.51-.03,15-.3,23.1-.29-.34-7.54-.59-14.29.42-21.92,7.85-.63,15.29-.9,22.58-.19Z"/>
  <path class="st0" d="M832.72,1000.6c-8.19.44-15.26.49-22.96-.07v-22.79s22.79-.04,22.79-.04l.17,22.9Z"/>
  <path class="st1" d="M1295.43,860.74c-.94,1.57-20.58,1.25-21.33.76-.82-.54-1.33-2.02-1.37-3.49l-.53-18.91,23.38-.23c.32,7.48.54,14.78-.15,21.87Z"/>
  <path class="st1" d="M1179.52,838.74c1.05,7.38.43,14.88.28,23.05-7.99.28-14.8.38-21.75-.12-1.81-2.09-.92-17.08-.73-22.39,7.61-.97,14.95-.23,22.2-.55Z"/>
  <path class="st0" d="M855.91,977.51l-22.82.05c-.41-7.84-.44-15.12.06-22.95h22.45s.3,22.9.3,22.9Z"/>
  <path class="st0" d="M879.28,908.5l22.84-.23.02,22.93-22.85-.19c-.54-8.11.04-15.31,0-22.51Z"/>
  <path class="st1" d="M832.78,1139.58l-22.75.1c-.52-7.91-.57-15.2.07-23.08l22.39.03.29,22.95Z"/>
  <path class="st0" d="M879.06,954.02c-7.86.84-15.12.53-22.94.21v-22.75s22.53-.04,22.53-.04l.41,22.58Z"/>
  <path class="st0" d="M1389.6,908.34c-.39.52-.81,1.01-1.26,1.48-.23-.51-1.07-.94-1.17-1.48-.07-1,.13-2.66,1.24-2.95.33.81,1.48,1.83,1.19,2.95Z"/>
  <polygon class="st1" points="1156.58 745.73 1133.84 745.61 1133.6 723.44 1156.54 723.3 1156.58 745.73"/>
</svg>