<svg width="1622" height="869" viewBox="0 0 1622 869" fill="none" xmlns="http://www.w3.org/2000/svg">
<path d="M75.832 40.384V37.504H72.92V22.72H75.832V19.808H84.856V22.72H87.8V28.8H84.536V23.04H76.152V37.184H84.536V31.36H87.8V37.504H84.856V40.384H75.832ZM94.582 40.384V37.504H91.67V22.72H94.582V19.808H103.606V22.72H106.55V37.504H103.606V40.384H94.582ZM94.902 37.184H103.286V23.04H94.902V37.184ZM110.42 40.384V19.808H113.652V22.72H116.532V25.6H119.476V34.272H122.036V19.808H125.3V40.384H122.036V37.504H119.156V34.592H116.212V25.92H113.652V40.384H110.42ZM129.17 40.384V19.808H132.402V22.72H135.282V25.6H138.226V34.272H140.786V19.808H144.05V40.384H140.786V37.504H137.906V34.592H134.962V25.92H132.402V40.384H129.17ZM150.832 40.384V37.504H147.92V22.72H150.832V19.808H159.856V22.72H162.8V25.92H159.536V23.04H151.152V28.512H156.976V31.68H151.152V37.184H159.536V34.272H162.8V37.504H159.856V40.384H150.832ZM166.67 40.384V37.184H169.582V31.36H172.462V28.8H169.582V23.04H166.67V19.808H169.902V22.72H172.782V28.512H175.406V22.72H178.286V19.808H181.55V23.04H178.606V28.8H175.726V31.36H178.606V37.184H181.55V40.384H178.286V37.504H175.406V31.68H172.782V37.504H169.902V40.384H166.67ZM185.42 40.384V37.184H188.332V23.04H185.42V19.808H194.476V23.04H191.532V37.184H194.476V40.384H185.42ZM201.27 40.384V37.504H198.358V22.72H201.27V19.808H210.294V22.72H213.238V37.504H210.294V40.384H201.27ZM201.59 37.184H209.974V23.04H201.59V37.184ZM217.108 40.384V19.808H220.34V22.72H223.22V25.6H226.164V34.272H228.724V19.808H231.988V40.384H228.724V37.504H225.844V34.592H222.9V25.92H220.34V40.384H217.108ZM242.264 40.384L252.44 19.808H255.288L245.112 40.384H242.264ZM259.201 40.384L269.377 19.808H272.225L262.049 40.384H259.201ZM282.545 40.384V22.72H285.457V19.808H288.657V22.72H291.601V28.512H294.161V22.72H297.105V19.808H300.337V22.72H303.217V40.384H300.017V23.04H297.425V28.8H294.481V37.504H291.281V28.8H288.337V23.04H285.777V40.384H282.545ZM309.988 40.384V37.504H307.076V19.808H310.308V37.184H318.692V19.808H321.956V37.504H319.012V40.384H309.988ZM328.738 40.384V37.504H325.826V19.808H329.058V37.184H337.442V34.272H340.706V37.504H337.762V40.384H328.738ZM346.525 40.384V23.04H343.965V25.92H340.733V22.72H343.645V19.808H352.669V22.72H355.613V25.92H352.349V23.04H349.789V40.384H346.525ZM359.483 40.384V37.184H362.395V23.04H359.483V19.808H368.539V23.04H365.595V37.184H368.539V40.384H359.483ZM375.332 40.384V37.504H372.42V31.36H375.652V37.184H384.036V23.04H375.332V19.808H384.356V22.72H387.3V37.504H384.356V40.384H375.332ZM394.082 40.384V37.504H391.17V22.72H394.082V19.808H403.106V22.72H406.05V37.504H403.106V40.384H394.082ZM394.402 37.184H402.786V23.04H394.402V37.184ZM412.832 40.384V37.504H409.92V19.808H413.152V37.184H421.536V19.808H424.8V37.504H421.856V40.384H412.832ZM431.582 40.384V37.504H428.67V22.72H431.582V19.808H440.606V22.72H443.55V25.92H440.286V23.04H431.902V28.512H437.726V31.68H431.902V37.184H440.286V34.272H443.55V37.504H440.606V40.384H431.582ZM450.332 40.384V37.504H447.42V19.808H450.652V37.184H459.036V19.808H462.3V37.504H459.356V40.384H450.332ZM466.17 40.384V22.72H469.082V19.808H478.106V22.72H481.05V31.68H478.106V34.592H476.698V37.184H479.578V40.384H476.378V37.504H473.434V34.592H469.402V40.384H466.17ZM469.402 31.36H477.786V23.04H469.402V31.36ZM487.832 40.384V37.504H484.92V34.272H488.152V37.184H496.536V31.68H487.832V28.8H484.92V22.72H487.832V19.808H496.856V22.72H499.8V25.92H496.536V23.04H488.152V28.512H496.856V31.36H499.8V37.504H496.856V40.384H487.832ZM503.67 40.384L513.846 19.808H516.694L506.518 40.384H503.67ZM520.608 40.384L530.784 19.808H533.632L523.456 40.384H520.608Z" fill="#F7FFC3"/>
<rect x="0.5" y="0.5" width="1621" height="828" stroke="#F7FFC3"/>
<rect x="8.5" y="8.5" width="23" height="21.8483" stroke="#F7FFC3"/>
<path d="M11 11L29 28" stroke="#F7FFC3"/>
<path d="M29 11L11 28" stroke="#F7FFC3"/>
<path d="M3 65H554" stroke="#F7FFC3"/>
<path d="M553 0L553 65" stroke="#F7FFC3"/>
<path d="M0 868L1622 868" stroke="#F7FFC3"/>
</svg>
