<svg width="673" height="167" viewBox="0 0 673 167" fill="none" xmlns="http://www.w3.org/2000/svg">
<path d="M2.688 115L36.48 25.4H54.784L88.576 115H75.136L66.816 93.624H24.32L16.256 115H2.688ZM28.288 82.488C33.664 82.488 38.272 82.488 42.112 82.488C45.952 82.488 49.2373 82.6587 51.968 83C54.6987 83.256 57.3013 84.0667 59.776 85.432C62.336 86.7973 64.5547 89.1013 66.432 92.344L45.568 36.664L28.288 82.488ZM95.215 115V25.4H136.175C146.415 25.4 154.436 27.4907 160.239 31.672C166.042 35.8533 168.943 42.424 168.943 51.384C168.943 55.48 168.26 58.68 166.895 60.984C165.53 63.288 163.994 65.208 162.287 66.744C161.434 67.6827 160.41 68.536 159.215 69.304C158.02 69.9867 156.74 70.584 155.375 71.096C154.01 71.608 152.602 72.0347 151.151 72.376C149.786 72.7173 148.463 73.016 147.183 73.272V73.528C148.548 73.272 149.999 73.016 151.535 72.76C153.156 72.504 154.778 72.376 156.399 72.376C157.85 72.376 159.172 72.5467 160.367 72.888C161.647 73.144 162.756 73.656 163.695 74.424C165.402 75.5333 166.852 77.1547 168.047 79.288C169.242 81.4213 169.839 84.7067 169.839 89.144L169.967 115H157.295V89.912C157.295 87.4373 156.612 85.6453 155.247 84.536C153.967 83.3413 151.62 82.744 148.207 82.744L107.887 82.872V115H95.215ZM133.743 71.736C137.242 71.736 140.399 71.3093 143.215 70.456C146.116 69.5173 148.634 68.2373 150.767 66.616C152.9 64.9947 154.522 63.1173 155.631 60.984C156.826 58.8507 157.423 56.504 157.423 53.944C157.423 47.288 155.418 42.68 151.407 40.12C147.482 37.56 142.063 36.28 135.151 36.28H107.887V71.736H133.743ZM176.965 25.4H244.293V37.176H189.509V66.232H242.501V76.728H189.509V103.224H244.293V115H176.965V25.4ZM250.566 70.2C250.566 62.4347 251.675 55.6933 253.894 49.976C256.113 44.1733 259.185 39.3947 263.11 35.64C267.035 31.8 271.643 28.984 276.934 27.192C282.225 25.3147 287.985 24.4187 294.214 24.504C299.334 24.5893 304.198 25.272 308.806 26.552C313.414 27.832 317.553 29.7947 321.222 32.44C324.977 35 328.177 38.2427 330.822 42.168C333.467 46.0933 335.43 50.7013 336.71 55.992L324.55 59.32C323.014 52.8347 319.643 47.544 314.438 43.448C309.318 39.2667 302.577 37.176 294.214 37.176C289.265 37.176 284.827 37.944 280.902 39.48C277.062 40.9307 273.819 43.1067 271.174 46.008C268.529 48.824 266.523 52.28 265.158 56.376C263.793 60.472 263.11 65.08 263.11 70.2C263.11 75.4053 263.835 80.056 265.286 84.152C266.737 88.248 268.785 91.704 271.43 94.52C274.161 97.336 277.446 99.512 281.286 101.048C285.126 102.499 289.435 103.224 294.214 103.224C298.481 103.224 302.278 102.669 305.606 101.56C309.019 100.451 312.006 98.9147 314.566 96.952C317.126 94.9893 319.217 92.6853 320.838 90.04C322.545 87.3093 323.782 84.3227 324.55 81.08L336.71 84.408C335.43 89.6987 333.467 94.3067 330.822 98.232C328.177 102.157 324.977 105.443 321.222 108.088C317.553 110.648 313.414 112.568 308.806 113.848C304.198 115.128 299.334 115.811 294.214 115.896C287.985 115.981 282.225 115.128 276.934 113.336C271.643 111.459 267.035 108.643 263.11 104.888C259.185 101.048 256.113 96.2693 253.894 90.552C251.675 84.7493 250.566 77.9653 250.566 70.2ZM343.34 25.4H355.884V115H343.34V25.4ZM399.942 25.4C409.841 25.4 417.435 27.2773 422.726 31.032C428.102 34.7013 430.79 40.504 430.79 48.44C430.79 49.2933 430.577 50.36 430.15 51.64C429.809 52.92 429.211 54.2853 428.358 55.736C427.505 57.1013 426.395 58.4667 425.03 59.832C423.665 61.112 422.001 62.2213 420.038 63.16C419.099 63.672 417.99 64.056 416.71 64.312C415.43 64.4827 414.278 64.6107 413.254 64.696V64.952C414.278 64.8667 415.43 64.824 416.71 64.824C418.075 64.7387 419.27 64.8667 420.294 65.208C423.195 65.976 425.67 67.128 427.718 68.664C429.766 70.2 431.43 71.992 432.71 74.04C434.075 76.0027 435.057 78.1787 435.654 80.568C436.251 82.9573 436.55 85.432 436.55 87.992C436.55 97.5493 433.649 104.461 427.846 108.728C422.043 112.909 414.022 115 403.782 115H363.334V25.4H399.942ZM375.878 103.224H404.55C407.195 103.224 409.713 102.925 412.102 102.328C414.491 101.645 416.582 100.664 418.374 99.384C420.166 98.0187 421.574 96.3547 422.598 94.392C423.707 92.344 424.262 89.9973 424.262 87.352C424.262 83 422.769 79.8 419.782 77.752C416.881 75.6187 412.827 74.552 407.622 74.552H375.878V103.224ZM375.878 64.184H405.83C410.95 64.184 414.534 63.032 416.582 60.728C418.715 58.3387 419.782 55.0107 419.782 50.744C419.782 48.184 419.227 46.0507 418.118 44.344C417.094 42.552 415.686 41.144 413.894 40.12C412.187 39.0107 410.182 38.2 407.878 37.688C405.574 37.176 403.185 36.92 400.71 36.92H375.878V64.184ZM486.738 115.896C480.594 115.896 474.791 114.957 469.33 113.08C463.954 111.203 459.218 108.387 455.122 104.632C451.111 100.877 447.911 96.1413 445.522 90.424C443.218 84.7067 442.066 77.9653 442.066 70.2C442.066 62.4347 443.218 55.6933 445.522 49.976C447.911 44.1733 451.111 39.3947 455.122 35.64C459.218 31.8 463.954 28.984 469.33 27.192C474.791 25.3147 480.594 24.4187 486.738 24.504C492.882 24.5893 498.642 25.5707 504.018 27.448C509.479 29.24 514.215 32.056 518.226 35.896C522.322 39.6507 525.522 44.3867 527.826 50.104C530.215 55.736 531.41 62.4347 531.41 70.2C531.41 77.9653 530.215 84.7067 527.826 90.424C525.522 96.1413 522.322 100.877 518.226 104.632C514.215 108.387 509.479 111.203 504.018 113.08C498.642 114.957 492.882 115.896 486.738 115.896ZM486.738 36.28C482.642 36.28 478.674 37.048 474.834 38.584C470.994 40.0347 467.581 42.2107 464.594 45.112C461.607 48.0133 459.175 51.5973 457.298 55.864C455.506 60.0453 454.61 64.824 454.61 70.2C454.61 75.576 455.506 80.3547 457.298 84.536C459.09 88.7173 461.479 92.2587 464.466 95.16C467.538 98.0613 470.994 100.28 474.834 101.816C478.674 103.352 482.642 104.12 486.738 104.12C491.09 104.12 495.186 103.352 499.026 101.816C502.951 100.28 506.365 98.0613 509.266 95.16C512.253 92.2587 514.599 88.7173 516.306 84.536C518.013 80.3547 518.866 75.576 518.866 70.2C518.866 64.824 517.97 60.0453 516.178 55.864C514.386 51.6827 511.954 48.1413 508.882 45.24C505.895 42.3387 502.482 40.1627 498.642 38.712C494.802 37.176 490.834 36.3653 486.738 36.28Z" fill="#F7FFC3"/>
</svg>
