<svg width="241" height="173" viewBox="0 0 241 173" fill="none" xmlns="http://www.w3.org/2000/svg">
<path d="M54.744 130.416V103.6H63.96V130.352C63.96 137.648 60.76 142.512 52.76 142.512C50.712 142.512 49.112 142.32 47.576 142.064L48.024 134.192C49.176 134.384 50.136 134.512 51.16 134.512C53.656 134.512 54.744 132.912 54.744 130.416ZM77.81 103.6L85.362 118.192H86.45L93.426 103.6H103.09V104.304L91.826 123.312L103.346 141.296V142H93.106L85.554 126.96H84.53L77.106 142H67.442V141.296L78.962 122.224L67.634 104.304V103.6H77.81ZM122.188 142.64C111.884 142.64 106.188 138.928 105.228 130.224L114.124 129.2C114.764 133.104 116.492 135.472 122.252 135.472C126.86 135.472 128.972 133.616 128.972 130.608C128.972 127.472 127.628 125.936 122.636 125.936H116.172V119.664H122.636C126.092 119.664 128.012 118.448 128.012 115.12C128.012 111.664 126.156 110.192 122.06 110.192C117.068 110.192 115.596 112.432 115.02 116.272L106.508 115.504C107.532 107.76 112.012 102.96 121.996 102.96C132.236 102.96 136.524 106.416 136.524 113.264C136.524 118.448 133.388 121.136 127.692 122.288V123.056C135.564 123.76 138.06 126.32 138.06 131.696C138.06 138.224 133.516 142.64 122.188 142.64ZM140.707 112.048V103.6H172.067V112.048H160.995V142H151.779V112.048H140.707Z" fill="#F7FFC3"/>
<path d="M3.624 22.288V20.128H1.44V9.04H3.624V6.856H10.392V9.04H12.6V13.6H10.152V9.28H3.864V19.888H10.152V15.52H12.6V20.128H10.392V22.288H3.624ZM17.6865 22.288V20.128H15.5025V9.04H17.6865V6.856H24.4545V9.04H26.6625V20.128H24.4545V22.288H17.6865ZM17.9265 19.888H24.2145V9.28H17.9265V19.888ZM29.565 22.288V6.856H36.357V9.04H38.517V11.2H40.725V17.944H38.517V20.128H36.357V22.288H29.565ZM31.989 19.888H36.117V17.704H38.277V11.44H36.117V9.28H31.989V19.888ZM45.8115 22.288V20.128H43.6275V9.04H45.8115V6.856H52.5795V9.04H54.7875V11.44H52.3395V9.28H46.0515V13.384H50.4195V15.76H46.0515V19.888H52.3395V17.704H54.7875V20.128H52.5795V22.288H45.8115ZM62.4947 22.288V6.856H69.2867V9.04H71.4467V11.2H73.6547V17.944H71.4467V20.128H69.2867V22.288H62.4947ZM64.9187 19.888H69.0467V17.704H71.2067V11.44H69.0467V9.28H64.9187V19.888ZM78.7412 22.288V20.128H76.5572V9.04H78.7412V6.856H85.5092V9.04H87.7172V11.44H85.2692V9.28H78.9812V13.384H83.3492V15.76H78.9812V19.888H85.2692V17.704H87.7172V20.128H85.5092V22.288H78.7412ZM97.6084 22.288V20.128H95.4244V6.856H97.8484V19.888H104.136V17.704H106.584V20.128H104.376V22.288H97.6084ZM109.487 22.288V11.2H111.671V9.04H113.831V6.856H116.279V9.04H118.439V11.2H120.647V22.288H118.199V17.944H111.911V22.288H109.487ZM111.911 15.52H118.199V11.44H116.039V9.28H114.071V11.44H111.911V15.52ZM130.538 22.288V20.128H128.354V17.704H130.778V19.888H137.066V15.76H130.538V13.6H128.354V9.04H130.538V6.856H137.306V9.04H139.514V11.44H137.066V9.28H130.778V13.384H137.306V15.52H139.514V20.128H137.306V22.288H130.538ZM144.601 22.288V20.128H142.417V9.04H144.601V6.856H151.369V9.04H153.577V11.44H151.129V9.28H144.841V13.384H149.209V15.76H144.841V19.888H151.129V17.704H153.577V20.128H151.369V22.288H144.601ZM158.663 22.288V20.128H156.479V17.704H158.903V19.888H165.191V15.76H158.663V13.6H156.479V9.04H158.663V6.856H165.431V9.04H167.639V11.44H165.191V9.28H158.903V13.384H165.431V15.52H167.639V20.128H165.431V22.288H158.663ZM172.726 22.288V20.128H170.542V17.704H172.966V19.888H179.254V15.76H172.726V13.6H170.542V9.04H172.726V6.856H179.494V9.04H181.702V11.44H179.254V9.28H172.966V13.384H179.494V15.52H181.702V20.128H179.494V22.288H172.726ZM184.604 22.288V19.888H186.788V9.28H184.604V6.856H191.396V9.28H189.188V19.888H191.396V22.288H184.604ZM196.491 22.288V20.128H194.307V9.04H196.491V6.856H203.259V9.04H205.467V20.128H203.259V22.288H196.491ZM196.731 19.888H203.019V9.28H196.731V19.888ZM208.37 22.288V6.856H210.794V9.04H212.954V11.2H215.162V17.704H217.082V6.856H219.53V22.288H217.082V20.128H214.922V17.944H212.714V11.44H210.794V22.288H208.37ZM1.44 50.288V34.856H8.232V37.04H10.392V39.2H12.6V45.944H10.392V48.128H8.232V50.288H1.44ZM3.864 47.888H7.992V45.704H10.152V39.44H7.992V37.28H3.864V47.888ZM17.6865 50.288V48.128H15.5025V37.04H17.6865V34.856H24.4545V37.04H26.6625V39.44H24.2145V37.28H17.9265V41.384H22.2945V43.76H17.9265V47.888H24.2145V45.704H26.6625V48.128H24.4545V50.288H17.6865ZM36.5537 50.288V48.128H34.3697V43.52H36.7937V47.888H43.0817V37.28H36.5537V34.856H43.3217V37.04H45.5297V48.128H43.3217V50.288H36.5537ZM50.6162 50.288V48.128H48.4322V37.04H50.6162V34.856H57.3842V37.04H59.5922V39.44H57.1442V37.28H50.8562V41.384H55.2242V43.76H50.8562V47.888H57.1442V45.704H59.5922V48.128H57.3842V50.288H50.6162ZM64.6787 50.288V48.128H62.4947V34.856H64.9187V47.888H71.2067V34.856H73.6547V48.128H71.4467V50.288H64.6787ZM81.3619 50.288V39.2H83.5459V37.04H85.7059V34.856H88.1539V37.04H90.3139V39.2H92.5219V50.288H90.0739V45.944H83.7859V50.288H81.3619ZM83.7859 43.52H90.0739V39.44H87.9139V37.28H85.9459V39.44H83.7859V43.52ZM100.229 50.288V37.04H102.413V34.856H109.181V37.04H111.389V43.76H109.181V45.944H108.125V47.888H110.285V50.288H107.885V48.128H105.677V45.944H102.653V50.288H100.229ZM102.653 43.52H108.941V37.28H102.653V43.52ZM116.476 50.288V48.128H114.292V37.04H116.476V34.856H123.244V37.04H125.452V39.44H123.004V37.28H116.716V41.384H121.084V43.76H116.716V47.888H123.004V45.704H125.452V48.128H123.244V50.288H116.476ZM130.538 50.288V48.128H128.354V43.52H130.778V47.888H137.066V37.28H130.538V34.856H137.306V37.04H139.514V48.128H137.306V50.288H130.538ZM144.601 50.288V48.128H142.417V37.04H144.601V34.856H151.369V37.04H153.577V48.128H151.369V50.288H144.601ZM144.841 47.888H151.129V37.28H144.841V47.888ZM156.479 50.288V47.888H158.663V37.28H156.479V34.856H163.271V37.28H161.063V47.888H163.271V50.288H156.479ZM166.182 50.288V34.856H168.606V37.04H170.766V39.2H172.974V45.704H174.894V34.856H177.342V50.288H174.894V48.128H172.734V45.944H170.526V39.44H168.606V50.288H166.182ZM180.245 50.288V34.856H187.037V37.04H189.197V39.2H191.405V45.944H189.197V48.128H187.037V50.288H180.245ZM182.669 47.888H186.797V45.704H188.957V39.44H186.797V37.28H182.669V47.888ZM194.307 50.288V37.04H196.491V34.856H203.259V37.04H205.467V43.76H203.259V45.944H202.203V47.888H204.363V50.288H201.963V48.128H199.755V45.944H196.731V50.288H194.307ZM196.731 43.52H203.019V37.28H196.731V43.52ZM210.554 50.288V48.128H208.37V37.04H210.554V34.856H217.322V37.04H219.53V39.44H217.082V37.28H210.794V41.384H215.162V43.76H210.794V47.888H217.082V45.704H219.53V48.128H217.322V50.288H210.554ZM222.432 50V47.576H224.856V50H222.432ZM227.753 50V47.576H230.177V50H227.753ZM233.073 50V47.576H235.497V50H233.073Z" fill="#F7FFC3"/>
<rect x="20.5" y="75.5" width="180" height="97" stroke="#F7FFC3"/>
</svg>
