<svg width="545" height="26" viewBox="0 0 545 26" fill="none" xmlns="http://www.w3.org/2000/svg">
<path d="M9.77516e-05 25.72V3.63999H3.6401V-1.14441e-05H14.9201V3.63999H18.6001V14.84H14.9201V18.48H13.1601V21.72H16.7601V25.72H12.7601V22.12H9.0801V18.48H4.0401V25.72H9.77516e-05ZM4.0401 14.44H14.5201V4.03999H4.0401V14.44ZM27.0776 25.72V22.12H23.4376V3.63999H27.0776V-1.14441e-05H38.3576V3.63999H42.0376V7.63999H37.9576V4.03999H27.4776V10.88H34.7576V14.84H27.4776V21.72H37.9576V18.08H42.0376V22.12H38.3576V25.72H27.0776ZM54.1151 25.72V4.03999H50.9151V7.63999H46.8751V3.63999H50.5151V-1.14441e-05H61.7951V3.63999H65.4751V7.63999H61.3951V4.03999H58.1951V25.72H54.1151ZM72.7417 25.72V22.12H69.1017V3.63999H72.7417V-1.14441e-05H84.0217V3.63999H87.7017V22.12H84.0217V25.72H72.7417ZM73.1417 21.72H83.6217V4.03999H73.1417V21.72ZM96.1792 25.72V22.12H92.5392V-1.14441e-05H96.5792V21.72H107.059V-1.14441e-05H111.139V22.12H107.459V25.72H96.1792ZM115.977 25.72V3.63999H119.617V-1.14441e-05H130.897V3.63999H134.577V14.84H130.897V18.48H129.137V21.72H132.737V25.72H128.737V22.12H125.057V18.48H120.017V25.72H115.977ZM120.017 14.44H130.497V4.03999H120.017V14.44ZM139.414 25.72V-1.14441e-05H143.454V3.63999H147.054V7.23999H150.734V18.08H153.934V-1.14441e-05H158.014V25.72H153.934V22.12H150.334V18.48H146.654V7.63999H143.454V25.72H139.414ZM166.492 25.72V22.12H162.852V3.63999H166.492V-1.14441e-05H177.772V3.63999H181.452V7.63999H177.372V4.03999H166.892V10.88H174.172V14.84H166.892V21.72H177.372V18.08H181.452V22.12H177.772V25.72H166.492ZM186.289 25.72V3.63999H189.929V-1.14441e-05H201.209V3.63999H204.889V14.84H201.209V18.48H199.449V21.72H203.049V25.72H199.049V22.12H195.369V18.48H190.329V25.72H186.289ZM190.329 14.44H200.809V4.03999H190.329V14.44ZM221.374 25.72V22.12H217.734V18.08H221.774V21.72H232.254V14.84H221.374V11.24H217.734V3.63999H221.374V-1.14441e-05H232.654V3.63999H236.334V7.63999H232.254V4.03999H221.774V10.88H232.654V14.44H236.334V22.12H232.654V25.72H221.374ZM244.812 25.72V22.12H241.172V-1.14441e-05H245.212V21.72H255.692V-1.14441e-05H259.772V22.12H256.092V25.72H244.812ZM264.609 25.72V3.63999H268.249V-1.14441e-05H279.529V3.63999H283.209V14.84H279.529V18.48H277.769V21.72H281.369V25.72H277.369V22.12H273.689V18.48H268.649V25.72H264.609ZM268.649 14.44H279.129V4.03999H268.649V14.44ZM299.695 25.72V22.12H296.055V-1.14441e-05H300.095V21.72H310.575V18.08H314.655V22.12H310.975V25.72H299.695ZM323.132 25.72V22.12H319.492V3.63999H323.132V-1.14441e-05H334.412V3.63999H338.092V7.63999H334.012V4.03999H323.532V10.88H330.812V14.84H323.532V21.72H334.012V18.08H338.092V22.12H334.412V25.72H323.132ZM350.938 25.72V3.63999H354.578V-1.14441e-05H358.578V3.63999H362.258V10.88H365.458V3.63999H369.138V-1.14441e-05H373.178V3.63999H376.778V25.72H372.778V4.03999H369.538V11.24H365.858V22.12H361.858V11.24H358.178V4.03999H354.978V25.72H350.938ZM385.242 25.72V22.12H381.602V3.63999H385.242V-1.14441e-05H396.522V3.63999H400.202V22.12H396.522V25.72H385.242ZM385.642 21.72H396.122V4.03999H385.642V21.72ZM411.498 25.72V4.03999H408.298V7.63999H404.258V3.63999H407.898V-1.14441e-05H419.178V3.63999H422.858V7.63999H418.778V4.03999H415.578V25.72H411.498ZM430.124 25.72V22.12H426.484V3.63999H430.124V-1.14441e-05H441.404V3.63999H445.084V22.12H441.404V25.72H430.124ZM430.524 21.72H441.004V4.03999H430.524V21.72ZM449.922 25.72V3.63999H453.562V-1.14441e-05H457.562V3.63999H461.242V10.88H464.442V3.63999H468.122V-1.14441e-05H472.162V3.63999H475.762V25.72H471.762V4.03999H468.522V11.24H464.842V22.12H460.842V11.24H457.162V4.03999H453.962V25.72H449.922ZM484.226 25.72V22.12H480.586V3.63999H484.226V-1.14441e-05H495.506V3.63999H499.186V22.12H495.506V25.72H484.226ZM484.626 21.72H495.106V4.03999H484.626V21.72ZM510.482 25.72V4.03999H507.282V7.63999H503.242V3.63999H506.882V-1.14441e-05H518.162V3.63999H521.842V7.63999H517.762V4.03999H514.562V25.72H510.482ZM529.109 25.72V22.12H525.469V3.63999H529.109V-1.14441e-05H540.389V3.63999H544.069V22.12H540.389V25.72H529.109ZM529.509 21.72H539.989V4.03999H529.509V21.72Z" fill="#B1DD21"/>
</svg>
