<svg width="751" height="47" viewBox="0 0 751 47" fill="none" xmlns="http://www.w3.org/2000/svg">
<path d="M5.8651e-05 20.6879V5.2559H8.95206V7.4399H11.1601V9.8399H8.71206V7.6799H2.42406V11.7839H6.79206V14.1599H2.42406V20.6879H5.8651e-05ZM15.7778 20.6879V18.5279H13.5938V7.4399H15.7778V5.2559H22.5458V7.4399H24.7538V9.8399H22.3058V7.6799H16.0178V11.7839H20.3858V14.1599H16.0178V18.2879H22.3058V16.1039H24.7538V18.5279H22.5458V20.6879H15.7778ZM29.8403 20.6879V18.5279H27.6563V5.2559H30.0803V18.2879H36.3683V16.1039H38.8163V18.5279H36.6083V20.6879H29.8403ZM41.7188 20.6879V18.2879H43.9028V7.6799H41.7188V5.2559H48.5108V7.6799H46.3028V18.2879H48.5108V20.6879H41.7188ZM53.1372 20.6879V18.5279H50.9532V7.4399H53.1372V5.2559H59.9052V7.4399H62.1132V11.9999H59.6652V7.6799H53.3772V18.2879H59.6652V13.9199H62.1132V18.5279H59.9052V20.6879H53.1372ZM65.0157 20.6879V18.2879H67.1997V7.6799H65.0157V5.2559H71.8077V7.6799H69.5997V18.2879H71.8077V20.6879H65.0157ZM79.0628 20.6879V7.6799H77.1428V9.8399H74.7188V7.4399H76.9028V5.2559H83.6708V7.4399H85.8788V9.8399H83.4308V7.6799H81.5108V20.6879H79.0628ZM87.8204 20.6879V9.5999H90.0044V7.4399H92.1644V5.2559H94.6124V7.4399H96.7724V9.5999H98.9804V20.6879H96.5324V16.3439H90.2444V20.6879H87.8204ZM90.2444 13.9199H96.5324V9.8399H94.3724V7.6799H92.4044V9.8399H90.2444V13.9199ZM104.797 20.6879V7.6799H102.877V9.8399H100.453V7.4399H102.637V5.2559H109.405V7.4399H111.613V9.8399H109.165V7.6799H107.245V20.6879H104.797ZM114.516 20.6879V18.2879H116.7V7.6799H114.516V5.2559H121.308V7.6799H119.1V18.2879H121.308V20.6879H114.516ZM126.403 20.6879V18.5279H124.219V7.4399H126.403V5.2559H133.171V7.4399H135.379V18.5279H133.171V20.6879H126.403ZM126.643 18.2879H132.931V7.6799H126.643V18.2879ZM138.281 20.6879V5.2559H140.705V7.4399H142.865V9.5999H145.073V16.1039H146.993V5.2559H149.441V20.6879H146.993V18.5279H144.833V16.3439H142.625V9.8399H140.705V20.6879H138.281ZM157.148 16.3439V5.2559H159.572V16.3439H157.148ZM157.148 20.6879V18.2879H159.572V20.6879H157.148ZM169.457 20.6879V18.5279H167.273V13.9199H169.697V18.2879H175.985V7.6799H169.457V5.2559H176.225V7.4399H178.433V18.5279H176.225V20.6879H169.457ZM183.52 20.6879V18.5279H181.336V7.4399H183.52V5.2559H190.288V7.4399H192.496V9.8399H190.048V7.6799H183.76V11.7839H188.128V14.1599H183.76V18.2879H190.048V16.1039H192.496V18.5279H190.288V20.6879H183.52ZM200.203 20.6879V5.2559H202.627V7.4399H204.787V9.5999H206.995V16.1039H208.915V5.2559H211.363V20.6879H208.915V18.5279H206.755V16.3439H204.547V9.8399H202.627V20.6879H200.203ZM215.346 9.8399V8.4959H216.45V7.6799H214.266V5.2559H216.69V7.4399H217.77V8.7359H216.69V9.8399H215.346ZM220.664 20.6879V9.5999H222.848V7.4399H225.008V5.2559H227.456V7.4399H229.616V9.5999H231.824V20.6879H229.376V16.3439H223.088V20.6879H220.664ZM223.088 13.9199H229.376V9.8399H227.216V7.6799H225.248V9.8399H223.088V13.9199ZM236.911 20.6879V18.5279H234.727V5.2559H237.151V18.2879H243.439V5.2559H245.887V18.5279H243.679V20.6879H236.911ZM248.789 20.6879V7.4399H250.973V5.2559H257.741V7.4399H259.949V14.1599H257.741V16.3439H256.685V18.2879H258.845V20.6879H256.445V18.5279H254.237V16.3439H251.213V20.6879H248.789ZM251.213 13.9199H257.501V7.6799H251.213V13.9199ZM262.852 20.6879V9.5999H265.036V7.4399H267.196V5.2559H269.644V7.4399H271.804V9.5999H274.012V20.6879H271.564V16.3439H265.276V20.6879H262.852ZM265.276 13.9199H271.564V9.8399H269.404V7.6799H267.436V9.8399H265.276V13.9199ZM276.914 20.6879V18.2879H279.098V7.6799H276.914V5.2559H283.706V7.6799H281.498V18.2879H283.706V20.6879H276.914ZM288.801 20.6879V18.5279H286.617V16.1039H289.041V18.2879H295.329V14.1599H288.801V11.9999H286.617V7.4399H288.801V5.2559H295.569V7.4399H297.777V9.8399H295.329V7.6799H289.041V11.7839H295.569V13.9199H297.777V18.5279H295.569V20.6879H288.801ZM307.668 20.6879V18.5279H305.484V13.9199H307.908V18.2879H314.196V7.6799H307.668V5.2559H314.436V7.4399H316.644V18.5279H314.436V20.6879H307.668ZM319.547 20.6879V9.5999H321.731V7.4399H323.891V5.2559H326.339V7.4399H328.499V9.5999H330.707V20.6879H328.259V16.3439H321.971V20.6879H319.547ZM321.971 13.9199H328.259V9.8399H326.099V7.6799H324.131V9.8399H321.971V13.9199ZM333.609 20.6879V7.4399H335.793V5.2559H338.193V7.4399H340.401V11.7839H342.321V7.4399H344.529V5.2559H346.953V7.4399H349.113V20.6879H346.713V7.6799H344.769V11.9999H342.561V18.5279H340.161V11.9999H337.953V7.6799H336.033V20.6879H333.609ZM351.773 20.6879V9.5999H353.957V7.4399H356.117V5.2559H358.565V7.4399H360.725V9.5999H362.933V20.6879H360.485V16.3439H354.197V20.6879H351.773ZM354.197 13.9199H360.485V9.8399H358.325V7.6799H356.357V9.8399H354.197V13.9199ZM365.836 20.6879V18.2879H368.02V7.6799H365.836V5.2559H372.628V7.6799H370.42V18.2879H372.628V20.6879H365.836ZM377.723 20.6879V18.5279H375.539V16.1039H377.963V18.2879H384.251V14.1599H377.723V11.9999H375.539V7.4399H377.723V5.2559H384.491V7.4399H386.699V9.8399H384.251V7.6799H377.963V11.7839H384.491V13.9199H386.699V18.5279H384.491V20.6879H377.723ZM396.59 20.6879V18.5279H394.406V7.4399H396.59V5.2559H403.358V7.4399H405.566V11.9999H403.118V7.6799H396.83V18.2879H403.118V13.9199H405.566V18.5279H403.358V20.6879H396.59ZM408.469 20.6879V7.4399H410.653V5.2559H417.421V7.4399H419.629V14.1599H417.421V16.3439H416.365V18.2879H418.525V20.6879H416.125V18.5279H413.917V16.3439H410.893V20.6879H408.469ZM410.893 13.9199H417.181V7.6799H410.893V13.9199ZM424.715 20.6879V18.5279H422.531V5.2559H424.955V18.2879H431.243V5.2559H433.691V18.5279H431.483V20.6879H424.715ZM447.95 25.0079V22.8719H445.742V20.6879H443.582V18.5279H441.398V7.4399H443.582V5.2559H450.35V7.4399H452.558V18.5279H450.35V20.6879H448.19V22.6319H450.35V25.0079H447.95ZM443.822 18.2879H450.11V7.6799H443.822V18.2879ZM457.645 20.6879V18.5279H455.461V5.2559H457.885V18.2879H464.173V5.2559H466.621V18.5279H464.413V20.6879H457.645ZM471.707 20.6879V18.5279H469.523V7.4399H471.707V5.2559H478.475V7.4399H480.683V9.8399H478.235V7.6799H471.947V11.7839H476.315V14.1599H471.947V18.2879H478.235V16.1039H480.683V18.5279H478.475V20.6879H471.707ZM488.391 20.6879V5.2559H495.183V7.4399H497.343V9.5999H499.551V16.3439H497.343V18.5279H495.183V20.6879H488.391ZM490.815 18.2879H494.943V16.1039H497.103V9.8399H494.943V7.6799H490.815V18.2879ZM504.637 20.6879V18.5279H502.453V7.4399H504.637V5.2559H511.405V7.4399H513.613V9.8399H511.165V7.6799H504.877V11.7839H509.245V14.1599H504.877V18.2879H511.165V16.1039H513.613V18.5279H511.405V20.6879H504.637ZM518.7 20.6879V18.5279H516.516V16.1039H518.94V18.2879H525.228V14.1599H518.7V11.9999H516.516V7.4399H518.7V5.2559H525.468V7.4399H527.676V9.8399H525.228V7.6799H518.94V11.7839H525.468V13.9199H527.676V18.5279H525.468V20.6879H518.7ZM537.567 20.6879V18.5279H535.383V7.4399H537.567V5.2559H544.335V7.4399H546.543V11.9999H544.095V7.6799H537.807V18.2879H544.095V13.9199H546.543V18.5279H544.335V20.6879H537.567ZM549.445 20.6879V7.4399H551.629V5.2559H558.397V7.4399H560.605V14.1599H558.397V16.3439H557.341V18.2879H559.501V20.6879H557.101V18.5279H554.893V16.3439H551.869V20.6879H549.445ZM551.869 13.9199H558.157V7.6799H551.869V13.9199ZM565.692 20.6879V18.5279H563.508V7.4399H565.692V5.2559H572.46V7.4399H574.668V9.8399H572.22V7.6799H565.932V11.7839H570.3V14.1599H565.932V18.2879H572.22V16.1039H574.668V18.5279H572.46V20.6879H565.692ZM566.988 3.4799V2.1839H568.068V1.1039H569.172V-9.82285e-05H570.492V1.3199H569.412V2.4239H568.308V3.4799H566.988ZM577.57 20.6879V9.5999H579.754V7.4399H581.914V5.2559H584.362V7.4399H586.522V9.5999H588.73V20.6879H586.282V16.3439H579.994V20.6879H577.57ZM579.994 13.9199H586.282V9.8399H584.122V7.6799H582.154V9.8399H579.994V13.9199ZM594.547 20.6879V7.6799H592.627V9.8399H590.203V7.4399H592.387V5.2559H599.155V7.4399H601.363V9.8399H598.915V7.6799H596.995V20.6879H594.547ZM605.723 20.6879V18.5279H603.539V5.2559H605.963V18.2879H612.251V5.2559H614.699V18.5279H612.491V20.6879H605.723ZM617.602 20.6879V7.4399H619.786V5.2559H626.554V7.4399H628.762V14.1599H626.554V16.3439H625.498V18.2879H627.658V20.6879H625.258V18.5279H623.05V16.3439H620.026V20.6879H617.602ZM620.026 13.9199H626.314V7.6799H620.026V13.9199ZM633.848 20.6879V18.5279H631.664V7.4399H633.848V5.2559H640.616V7.4399H642.824V9.8399H640.376V7.6799H634.088V11.7839H638.456V14.1599H634.088V18.2879H640.376V16.1039H642.824V18.5279H640.616V20.6879H633.848ZM647.911 20.6879V18.5279H645.727V16.1039H648.151V18.2879H654.439V14.1599H647.911V11.9999H645.727V7.4399H647.911V5.2559H654.679V7.4399H656.887V9.8399H654.439V7.6799H648.151V11.7839H654.679V13.9199H656.887V18.5279H654.679V20.6879H647.911ZM668.938 20.6879V7.6799H667.018V9.8399H664.594V7.4399H666.778V5.2559H673.546V7.4399H675.754V9.8399H673.306V7.6799H671.386V20.6879H668.938ZM680.114 20.6879V18.5279H677.93V7.4399H680.114V5.2559H686.882V7.4399H689.09V9.8399H686.642V7.6799H680.354V11.7839H684.722V14.1599H680.354V18.2879H686.642V16.1039H689.09V18.5279H686.882V20.6879H680.114ZM694.176 20.6879V18.5279H691.992V5.2559H694.416V18.2879H700.704V16.1039H703.152V18.5279H700.944V20.6879H694.176ZM717.411 25.0079V22.8719H715.203V20.6879H713.043V18.5279H710.859V7.4399H713.043V5.2559H719.811V7.4399H722.019V18.5279H719.811V20.6879H717.651V22.6319H719.811V25.0079H717.411ZM713.283 18.2879H719.571V7.6799H713.283V18.2879ZM727.106 20.6879V18.5279H724.922V5.2559H727.346V18.2879H733.634V5.2559H736.082V18.5279H733.874V20.6879H727.106ZM741.168 20.6879V18.5279H738.984V7.4399H741.168V5.2559H747.936V7.4399H750.144V9.8399H747.696V7.6799H741.408V11.7839H745.776V14.1599H741.408V18.2879H747.696V16.1039H750.144V18.5279H747.936V20.6879H741.168ZM151.332 46.6879V44.5279H149.172V40.1599H146.988V31.2559H149.412V39.9199H151.572V44.2879H153.54V39.9199H155.7V31.2559H158.148V40.1599H155.94V44.5279H153.78V46.6879H151.332ZM163.235 46.6879V44.5279H161.051V33.4399H163.235V31.2559H170.003V33.4399H172.211V44.5279H170.003V46.6879H163.235ZM163.475 44.2879H169.763V33.6799H163.475V44.2879ZM177.297 46.6879V44.5279H175.113V31.2559H177.537V44.2879H183.825V31.2559H186.273V44.5279H184.065V46.6879H177.297ZM191.36 46.6879V44.5279H189.176V42.1039H191.6V44.2879H197.888V40.1599H191.36V37.9999H189.176V33.4399H191.36V31.2559H198.128V33.4399H200.336V35.8399H197.888V33.6799H191.6V37.7839H198.128V39.9199H200.336V44.5279H198.128V46.6879H191.36ZM208.043 46.6879V33.4399H210.227V31.2559H216.995V33.4399H219.203V40.1599H216.995V42.3439H210.467V46.6879H208.043ZM210.467 39.9199H216.755V33.6799H210.467V39.9199ZM224.29 46.6879V44.5279H222.106V31.2559H224.53V44.2879H230.818V31.2559H233.266V44.5279H231.058V46.6879H224.29ZM236.168 46.6879V44.2879H238.352V33.6799H236.168V31.2559H242.96V33.6799H240.752V44.2879H242.96V46.6879H236.168ZM248.055 46.6879V44.5279H245.871V42.1039H248.295V44.2879H254.583V40.1599H248.055V37.9999H245.871V33.4399H248.055V31.2559H254.823V33.4399H257.031V35.8399H254.583V33.6799H248.295V37.7839H254.823V39.9199H257.031V44.5279H254.823V46.6879H248.055ZM262.118 46.6879V44.5279H259.934V42.1039H262.358V44.2879H268.646V40.1599H262.118V37.9999H259.934V33.4399H262.118V31.2559H268.886V33.4399H271.094V35.8399H268.646V33.6799H262.358V37.7839H268.886V39.9199H271.094V44.5279H268.886V46.6879H262.118ZM276.18 46.6879V44.5279H273.996V33.4399H276.18V31.2559H282.948V33.4399H285.156V35.8399H282.708V33.6799H276.42V37.7839H280.788V40.1599H276.42V44.2879H282.708V42.1039H285.156V44.5279H282.948V46.6879H276.18ZM292.863 46.6879V33.4399H295.047V31.2559H301.815V33.4399H304.023V40.1599H301.815V42.3439H300.759V44.2879H302.919V46.6879H300.519V44.5279H298.311V42.3439H295.287V46.6879H292.863ZM295.287 39.9199H301.575V33.6799H295.287V39.9199ZM309.11 46.6879V44.5279H306.926V33.4399H309.11V31.2559H315.878V33.4399H318.086V35.8399H315.638V33.6799H309.35V37.7839H313.718V40.1599H309.35V44.2879H315.638V42.1039H318.086V44.5279H315.878V46.6879H309.11ZM323.172 46.6879V44.5279H320.988V31.2559H323.412V44.2879H329.7V31.2559H332.148V44.5279H329.94V46.6879H323.172ZM337.235 46.6879V44.5279H335.051V42.1039H337.475V44.2879H343.763V40.1599H337.235V37.9999H335.051V33.4399H337.235V31.2559H344.003V33.4399H346.211V35.8399H343.763V33.6799H337.475V37.7839H344.003V39.9199H346.211V44.5279H344.003V46.6879H337.235ZM351.297 46.6879V44.5279H349.113V42.1039H351.537V44.2879H357.825V40.1599H351.297V37.9999H349.113V33.4399H351.297V31.2559H358.065V33.4399H360.273V35.8399H357.825V33.6799H351.537V37.7839H358.065V39.9199H360.273V44.5279H358.065V46.6879H351.297ZM363.176 46.6879V44.2879H365.36V33.6799H363.176V31.2559H369.968V33.6799H367.76V44.2879H369.968V46.6879H363.176ZM372.879 46.6879V33.4399H375.063V31.2559H381.831V33.4399H384.039V40.1599H381.831V42.3439H380.775V44.2879H382.935V46.6879H380.535V44.5279H378.327V42.3439H375.303V46.6879H372.879ZM375.303 39.9199H381.591V33.6799H375.303V39.9199ZM393.93 46.6879V44.5279H391.746V33.4399H393.93V31.2559H400.698V33.4399H402.906V37.9999H400.458V33.6799H394.17V44.2879H400.458V39.9199H402.906V44.5279H400.698V46.6879H393.93ZM407.993 46.6879V44.5279H405.809V33.4399H407.993V31.2559H414.761V33.4399H416.969V35.8399H414.521V33.6799H408.233V37.7839H412.601V40.1599H408.233V44.2879H414.521V42.1039H416.969V44.5279H414.761V46.6879H407.993ZM424.215 46.6879V33.6799H422.295V35.8399H419.871V33.4399H422.055V31.2559H428.823V33.4399H431.031V35.8399H428.583V33.6799H426.663V46.6879H424.215ZM436.848 46.6879V33.6799H434.928V35.8399H432.504V33.4399H434.688V31.2559H441.456V33.4399H443.664V35.8399H441.216V33.6799H439.296V46.6879H436.848ZM448.024 46.6879V44.5279H445.84V33.4399H448.024V31.2559H454.792V33.4399H457V35.8399H454.552V33.6799H448.264V37.7839H452.632V40.1599H448.264V44.2879H454.552V42.1039H457V44.5279H454.792V46.6879H448.024ZM466.891 46.6879V44.5279H464.707V33.4399H466.891V31.2559H473.659V33.4399H475.867V35.8399H473.419V33.6799H467.131V37.7839H471.499V40.1599H467.131V44.2879H473.419V42.1039H475.867V44.5279H473.659V46.6879H466.891ZM478.77 46.6879V44.2879H480.954V39.9199H483.114V37.9999H480.954V33.6799H478.77V31.2559H481.194V33.4399H483.354V37.7839H485.322V33.4399H487.482V31.2559H489.93V33.6799H487.722V37.9999H485.562V39.9199H487.722V44.2879H489.93V46.6879H487.482V44.5279H485.322V40.1599H483.354V44.5279H481.194V46.6879H478.77ZM492.832 46.6879V33.4399H495.016V31.2559H501.784V33.4399H503.992V40.1599H501.784V42.3439H495.256V46.6879H492.832ZM495.256 39.9199H501.544V33.6799H495.256V39.9199ZM509.079 46.6879V44.5279H506.895V33.4399H509.079V31.2559H515.847V33.4399H518.055V35.8399H515.607V33.6799H509.319V37.7839H513.687V40.1599H509.319V44.2879H515.607V42.1039H518.055V44.5279H515.847V46.6879H509.079ZM520.957 46.6879V31.2559H527.749V33.4399H529.909V35.5999H532.117V42.3439H529.909V44.5279H527.749V46.6879H520.957ZM523.381 44.2879H527.509V42.1039H529.669V35.8399H527.509V33.6799H523.381V44.2879ZM533.824 46.6879V44.2879H536.008V33.6799H533.824V31.2559H540.616V33.6799H538.408V44.2879H540.616V46.6879H533.824ZM547.871 46.6879V33.6799H545.951V35.8399H543.527V33.4399H545.711V31.2559H552.479V33.4399H554.687V35.8399H552.239V33.6799H550.319V46.6879H547.871ZM557.59 46.6879V44.2879H559.774V33.6799H557.59V31.2559H564.382V33.6799H562.174V44.2879H564.382V46.6879H557.59ZM569.477 46.6879V44.5279H567.293V33.4399H569.477V31.2559H576.245V33.4399H578.453V44.5279H576.245V46.6879H569.477ZM569.717 44.2879H576.005V33.6799H569.717V44.2879ZM581.356 46.6879V31.2559H583.78V33.4399H585.94V35.5999H588.148V42.1039H590.068V31.2559H592.516V46.6879H590.068V44.5279H587.908V42.3439H585.7V35.8399H583.78V46.6879H581.356ZM595.418 46.3999V43.9759H597.842V46.3999H595.418ZM600.738 46.3999V43.9759H603.162V46.3999H600.738Z" fill="#B1DD21"/>
</svg>
