<?xml version="1.0" encoding="UTF-8"?>
<svg id="Calque_1" data-name="Calque 1" xmlns="http://www.w3.org/2000/svg" viewBox="0 0 237.33 156">
  <defs>
    <style>
      .cls-1 {
        fill: #2f2925;
      }

      .cls-2 {
        fill: #fcfcfc;
      }
    </style>
  </defs>
  <path class="cls-2" d="M142.14,60.81c11.39-1.03,30.68,3.34,37.52,12.1,9.58,12.27,17.35,31.68,10.13,47.58,5.83,2,10.01,1.03,15.44,1.48,3.87.32,9.31,4.77,6.52,8.69-6.05,8.49-24.49-.92-29.1,3.21s-8.27,8.68-14.77,10.38c-15.13,3.95-31.55,3.89-45.64-2.63-15.04-6.96-23.56-20.5-22.02-36.98.36-3.84,1.12-7.68.4-11.2,4.67-4.39,5.7-10.74,9.41-15.52,7.81-10.06,20.03-16.02,32.11-17.11ZM134.41,134.2c3.87-.29,7.41.58,9.09-2.01,4.83-7.41,2.85-18.89-5.35-23.27-3.53-1.88-9.05,1.2-10.56,4.54-3.42,7.54-.04,15.95,6.82,20.74Z"/>
  <path class="cls-1" d="M142.14,60.81c-12.08,1.09-24.3,7.05-32.11,17.11-3.71,4.78-4.74,11.13-9.41,15.52l-12.58,1.14c-4.07.37-6.89-.87-9.11-3.74-1.74-2.26-2.26-6.25-.1-9.14,2.27-3.03,6-3.91,8.82-6.68-5.79-3.91-19.91-12.87-16.69-21.3,4.19-10.98,15.83-14.05,27.12-11.26-4.63-10.23-7.32-30.75,3.01-34.13,23.19-7.58,47.73,29.85,41.05,52.47Z"/>
  <path class="cls-1" d="M134.41,134.2c-6.86-4.79-10.23-13.2-6.82-20.74,1.52-3.34,7.04-6.42,10.56-4.54,8.2,4.37,10.18,15.86,5.35,23.27-1.69,2.58-5.23,1.72-9.09,2.01Z"/>
</svg>