<?xml version="1.0" encoding="UTF-8"?>
<svg id="Calque_1" data-name="Calque 1" xmlns="http://www.w3.org/2000/svg" viewBox="0 0 189.33 166.06">
  <defs>
    <style>
      .cls-1 {
        fill: #4e618d;
      }

      .cls-2 {
        fill: #2f2925;
      }

      .cls-3 {
        fill: #fcfcfc;
      }
    </style>
  </defs>
  <rect class="cls-1" x="111.6" y="68.5" width="3.06" height="3.06"/>
  <g>
    <path class="cls-2" d="M28.87,115.32c-6.83-7.85-7.61-15.82-1.97-24.22,6.59-9.8,15.39-17.39,25.34-24.6,2.35-14.81,8.12-27.4,15.65-39.87,2.32-3.83,3.37-8.09,7.17-11.04,2.3-1.79,5.11-1.81,8.03-.57,7.04,2.99,6.42,37.95,6.77,46.67,7.52,1.84,14.63,1.64,21.7.55-.98-15.85,1.24-29.36,5.88-43.53,1.09-3.34,2.96-5.46,5.71-6.08,3.95-.88,6.38,1.11,8.45,4.71,7.29,12.69,11.64,26.95,13.46,41.57,1.04,8.39,4.85,12.54,10.79,17.93,6.35,5.77,11.77,13.05,17,20.31,3.49,4.85.81,14.14-3.42,18.97-28.71,32.83-79.85,33.09-117.4,18.27-9.8-3.87-16.33-11.27-23.15-19.09ZM148.13,113.46c4.73-3.03,10.2-10.5,7.95-16.24-2.1-5.36-6.02-12.32-10.34-15.5-8.6-6.35-19.75-3.16-28.45,1.67-11.03,6.12-18.55,24.74-9.9,34.01,6.76,7.25,29.38,3.32,40.74-3.94ZM87.12,117.31c5.49-7.82-2.74-36.72-26.24-36.25-7.82.16-15.66,2.38-19.42,9.46-2.65,4.99-4.43,9.45-2.79,14.67,3.77,12.01,37.66,27.48,48.46,12.12ZM94.52,124.36c-.1-3.58-10.11-3.74-9.8.7s9.89,2.65,9.8-.7Z"/>
    <path class="cls-3" d="M148.13,113.46c-11.37,7.27-33.99,11.2-40.74,3.94-8.64-9.28-1.13-27.89,9.9-34.01,8.71-4.83,19.85-8.02,28.45-1.67,4.32,3.19,8.23,10.14,10.34,15.5,2.25,5.74-3.22,13.21-7.95,16.24ZM142.51,89.82c-.66-3.89-3.37-6.3-6.68-5.53-7.38,1.72-5.08,22.29-4,24.86,1.3,3.1,4.91,3.21,7.11,2.14,5.91-2.87,4.73-14.56,3.57-21.47Z"/>
    <path class="cls-3" d="M87.12,117.31c-10.8,15.36-44.69-.11-48.46-12.12-1.64-5.22.14-9.68,2.79-14.67,3.76-7.08,11.6-9.31,19.42-9.46,23.5-.47,31.74,28.43,26.24,36.25ZM76.53,93.37c-.72-2.29-3.52-3.7-4.95-3.44-1.96.36-3.48,2.46-3.66,4.97-.54,7.33-2.55,24.93,5.97,23.31s3.87-20.92,2.64-24.84Z"/>
    <path class="cls-3" d="M94.52,124.36c.09,3.35-9.48,5.17-9.8.7s9.7-4.29,9.8-.7Z"/>
    <path class="cls-2" d="M142.51,89.82c1.16,6.91,2.34,18.6-3.57,21.47-2.21,1.07-5.81.96-7.11-2.14-1.08-2.57-3.38-23.14,4-24.86,3.31-.77,6.02,1.64,6.68,5.53Z"/>
    <path class="cls-2" d="M76.53,93.37c1.24,3.92,5.56,23.28-2.64,24.84s-6.51-15.97-5.97-23.31c.18-2.51,1.7-4.61,3.66-4.97,1.43-.26,4.23,1.14,4.95,3.44Z"/>
  </g>
</svg>