<?xml version="1.0" encoding="UTF-8"?>
<svg id="Calque_1" data-name="Calque 1" xmlns="http://www.w3.org/2000/svg" viewBox="0 0 218.67 169.02">
  <defs>
    <style>
      .cls-1 {
        fill: #2f2925;
      }

      .cls-2 {
        fill: #fcfcfc;
      }
    </style>
  </defs>
  <path class="cls-1" d="M108.31,167.17c-8.05,3.61-15.88,1.98-20.51-5.29-2.49-3.92-4.54-7.65-5.57-13.52-10.42,7.82-24.97,6.66-31.36-4.86-3.05-5.49-1.03-12.14-.16-18.05-4.59-1.21-9.47-.24-13.43-2.27-8.11-4.17-11.58-12.14-11.34-20.64.23-8.35,5.04-16.17,13.39-19.57-3.22-5.05-8.44-7.38-10.47-12.73-3.53-9.33.23-21.54,7.53-28.26,6.34-5.83,14.77-4.05,23.02-.92-2.18-16.25,6.88-30.79,23.11-31.29,4.03-.12,9.53,3.09,12.29,5.47,3.75,3.23,2.49,8.78,6.63,11.62,3.32-5.85,4.29-12.8,9.01-17.01,5.48-4.89,14.05-3.4,20.14-.06,5.88,3.23,7.2,10.91,7.82,18.69,5.05-4.18,9.66-9.81,16.57-8.88s11.82,7.77,13.03,12.71c1.9,7.75-.98,13.77-5.77,21.11,7.53.72,13.59-2.84,18.46,2.01,2.36,2.35,5.27,6.26,6.58,9.56,5.69,14.25-9.45,22.47-12.17,25.23-3.03,3.07,12.39,8.6,15.37,17.26,4.67,13.58-3.76,27.7-17.54,29.76-5.29.79-9.06-2.48-14.68-5.21.72,10.43-4.46,18.41-13.98,23.22-7.59,3.83-16.26-.11-23.62-5.37-.95,8.89-4.99,14.01-12.35,17.31ZM86.51,123.25c6.36-12.68-3.65-29.75-14.85-34.22-4.38-1.75-9.58-.06-11.79,1.77-9.13,7.57-1.27,22.38,5.62,31.14,3.86,4.91,17.04,9.23,21.02,1.3ZM119.75,131.35c12.84-.25,24.37-8.45,27.43-20.22,1.24-4.77-.38-9.55-3.43-12.72-2.37-2.46-7.09-3.72-10.93-2.42-16.19,5.5-28.34,21.67-21.77,30.97,1.28,1.82,4.34,4.47,8.7,4.39Z"/>
  <path class="cls-2" d="M86.51,123.25c-3.98,7.93-17.16,3.61-21.02-1.3-6.88-8.77-14.75-23.58-5.62-31.14,2.21-1.83,7.41-3.52,11.79-1.77,11.2,4.46,21.22,21.54,14.85,34.22ZM66.86,99.05c-1.41.89-2.2,3.16-.79,5.01,5.91,7.75,7.58,18.16,12.57,15.28,5.35-3.08-5.97-23.95-11.79-20.29Z"/>
  <path class="cls-2" d="M119.75,131.35c-4.36.08-7.42-2.57-8.7-4.39-6.57-9.3,5.58-25.47,21.77-30.97,3.85-1.31,8.57-.05,10.93,2.42,3.04,3.17,4.66,7.95,3.43,12.72-3.05,11.78-14.59,19.98-27.43,20.22ZM137.23,104.6c-4.47-2.04-15.13,8.12-19.02,11.96-1.57,1.55-1.07,4.66-.2,5.8,4.04,5.3,25.79-14.75,19.22-17.76Z"/>
  <path class="cls-1" d="M66.86,99.05c5.82-3.67,17.13,17.21,11.79,20.29-5,2.88-6.66-7.52-12.57-15.28-1.41-1.85-.62-4.12.79-5.01Z"/>
  <path class="cls-1" d="M137.23,104.6c6.58,3.01-15.18,23.06-19.22,17.76-.87-1.14-1.37-4.25.2-5.8,3.89-3.84,14.55-14,19.02-11.96Z"/>
</svg>