<?xml version="1.0" encoding="UTF-8"?>
<svg id="Calque_1" data-name="Calque 1" xmlns="http://www.w3.org/2000/svg" viewBox="0 0 273.33 186.67">
  <defs>
    <style>
      .cls-1 {
        fill: #2f2925;
      }

      .cls-2 {
        fill: #fcfcfc;
      }
    </style>
  </defs>
  <path class="cls-2" d="M192.37,127.14c-6.83,51.05-67.48,51.18-105.11,40.08-11.29-3.33-23.72-2.08-34.12-7.94-33.92-19.12-32.6-79-2.47-99.39-6.67-5.87-8.67-12.25-12.08-19.54-2.3-4.91-4.35-11.64,1.09-15.47,6.11-4.3,13.26-.11,16.7,6.05,4.21,7.54,3.13,15.69,3.2,25.07,12.59-5.53,25.09-7.74,38.52-7.04.19-9.92,10.56-33.28,22.36-25.82,6.16,3.89-4.48,21.11-10.87,27.55,8.48,4.48,17.19,6.65,23.56,13.19,3.47,3.56,3.73,13.29,12.92,13.9,12.99.86,24.88,5.59,34.74,13.84,3.89,3.26,5.64,7.56,8.09,11.38,5.14,8.01,4.65,15.34,3.47,24.14ZM129.41,79.38c.58-4.68-.62-8.83-4.18-10.66-3.32-1.7-7.37-1.1-10.4,1.89-3.38,3.35-4.04,7.45-2.38,11.85,1.81,4.77,5.31,7.23,10.07,6.13,3.84-.88,6.23-3.98,6.88-9.21ZM72.76,85.54c-.79-8.61-10.57-14-17.52-10.5-4.3,2.17-5.8,6.88-5.83,10.5-.05,6.44,10.38,14.51,18.11,10.79,2.7-1.3,5.73-5.41,5.24-10.78ZM169.46,131.45c4.52-4.8,5.4-10.37,1.65-14.69-3.82,4.21-4.98,10.56-1.65,14.69ZM141.5,137.87c1.7-7.81-2.3-14.76-7.26-19.62-1.65,7.57,1.42,15.47,7.26,19.62ZM174.64,149.63c1.28-.11,2.31-.99,2.3-1.66-.04-2.72-15.64-1.16-19.9-.69l-58.74,6.47c6.6,3.46,12.92,1.21,19.54.65l56.8-4.77Z"/>
  <path class="cls-1" d="M72.76,85.54c.49,5.37-2.54,9.48-5.24,10.78-7.73,3.72-18.16-4.34-18.11-10.79.03-3.62,1.52-8.33,5.83-10.5,6.95-3.5,16.73,1.89,17.52,10.5Z"/>
  <path class="cls-1" d="M129.41,79.38c-.65,5.23-3.04,8.33-6.88,9.21-4.76,1.09-8.26-1.36-10.07-6.13-1.67-4.39-1.01-8.5,2.38-11.85,3.03-2.99,7.07-3.59,10.4-1.89,3.56,1.82,4.76,5.98,4.18,10.66Z"/>
  <path class="cls-1" d="M174.64,149.63l-56.8,4.77c-6.63.56-12.94,2.81-19.54-.65l58.74-6.47c4.27-.47,19.87-2.04,19.9.69,0,.67-1.02,1.55-2.3,1.66Z"/>
  <path class="cls-1" d="M141.5,137.87c-5.85-4.15-8.91-12.05-7.26-19.62,4.96,4.86,8.96,11.81,7.26,19.62Z"/>
  <path class="cls-1" d="M169.46,131.45c-3.33-4.13-2.17-10.48,1.65-14.69,3.76,4.32,2.88,9.89-1.65,14.69Z"/>
</svg>