<?xml version="1.0" encoding="UTF-8"?>
<svg id="Calque_1" data-name="Calque 1" xmlns="http://www.w3.org/2000/svg" viewBox="0 0 165.26 165.33">
  <defs>
    <style>
      .cls-1 {
        fill: #2f2925;
      }

      .cls-2 {
        fill: #fcfcfc;
      }
    </style>
  </defs>
  <path class="cls-2" d="M125.52,83.95c5.84.69,11.9,3.26,16.11,6.29,12.84,9.25,13.18,27.36,1.44,37.79-7.92,7.04-18.36,8.83-28.54,11.66-16.51,4.59-32.49,5.3-49.63,3.09-10.46-1.35-21.03-1.16-30.73-5.44-9.95-4.39-11.33-39.47-11.13-50.01.31-16.33-2.63-53.13,9.5-64.95,6.15-5.99,21.85-3.78,24.62,5.19,6.31,20.45,1.59,51.59,3.66,54.96.5.81,2.38.8,3.46.49,3.87-1.12-1.44-54.36,16.56-63.12,5.31-2.58,11.99-1.83,16.67,1.92,14.26,11.45,1.49,42.03-.94,58.67l28.95,3.44ZM95.51,100.64c-3.16,2.66-7.88,1.09-11.16-.68-2.19-1.18-2.22-4.96-5.37-8.52-3.38,4.25-.39,8.8,1.88,11.52,3.52,4.19,16.79,6.28,19.38-1.7,1.06-3.27,1.27-7.28-1.06-9.6-1.98,3.17-.78,6.55-3.68,8.99ZM129.16,109.99c3.47-1.72,6.33-1.69,6.7-5.28.25-2.46,2.22-5.52-.99-8.01-5.36-4.16-17.48-1.51-18.66,5.97-1.02,6.44,8.53,9.52,12.96,7.31ZM48.38,114.74c5.77.92,11.85.28,15.52-4.98,2.26-3.24,5.07-10.87.19-14.57-3.67,3.32-1.41,7.97-3.41,11.43-2.48,4.28-7.46,4.28-12.66,3.46-2.73-.43-4.18-4.17-8-7.33-2.75,6.29,2.52,11.07,8.37,12Z"/>
  <path class="cls-1" d="M129.16,109.99c-4.43,2.2-13.98-.87-12.96-7.31,1.18-7.48,13.3-10.13,18.66-5.97,3.21,2.49,1.25,5.56.99,8.01-.37,3.58-3.23,3.55-6.7,5.28Z"/>
  <path class="cls-1" d="M48.38,114.74c-5.85-.94-11.12-5.71-8.37-12,3.83,3.16,5.27,6.9,8,7.33,5.2.82,10.18.82,12.66-3.46,2-3.45-.26-8.1,3.41-11.43,4.88,3.71,2.07,11.34-.19,14.57-3.67,5.26-9.75,5.9-15.52,4.98Z"/>
  <path class="cls-1" d="M95.51,100.64c2.9-2.44,1.71-5.82,3.68-8.99,2.33,2.32,2.12,6.34,1.06,9.6-2.59,7.98-15.87,5.89-19.38,1.7-2.28-2.71-5.26-7.27-1.88-11.52,3.14,3.56,3.18,7.34,5.37,8.52,3.28,1.77,8,3.34,11.16.68Z"/>
</svg>