<?xml version="1.0" encoding="UTF-8"?>
<svg id="Calque_1" data-name="Calque 1" xmlns="http://www.w3.org/2000/svg" viewBox="0 0 179.81 177.75">
  <defs>
    <style>
      .cls-1 {
        fill: #2f2925;
      }

      .cls-2 {
        fill: #fcfcfc;
      }
    </style>
  </defs>
  <path class="cls-1" d="M146.5,121.21c-16.06-.72-31.66,4.46-40.84,18.22-5.79,8.67-6.74,17.42.72,24.6,3.18,1.07-49.43-9.61-55.56-15.08-12.65-15.63-7.57-39.97-1.91-57.67-16.83-17.78-30.76-36.96-39.13-59.74-.77-2.09-.98-4.29.02-5.63.93-1.24,3.51-1.92,5.54-1.72,16.58,1.65,29.47,10.48,40.34,22.28,10.39,11.28,15.39,28.43,19.08,29.48,1.54.44,6.38.29,6.14-1.68-1.24-10.01-18.04-60.3-9.55-64.63,2.22-1.13,4.85-1.46,6.87.53,6.06,6,13.03,10.97,18.16,17.81,10.73,14.3,16.12,30.96,19.91,48.33,23.37,10.95,35.18,17.43,30.21,44.89ZM74.83,143.75c7.93-2.75,13-12.76,10.57-20-3.25-9.67-22.33-17.42-30.13-8.97-3.81,4.13-4.4,9.32-2.98,14.85,2.43,9.45,11.62,17.91,22.54,14.12Z"/>
  <path class="cls-2" d="M146.5,121.21c8.59.38,16.43,4.73,17.38,14.73,2.74,28.78-39.33,34.18-46.19,31.88l-11.3-3.79c-7.46-7.18-6.51-15.93-.72-24.6,9.18-13.76,24.78-18.93,40.84-18.22ZM150.75,134.37c-2.8,3.82-5.25,8.65-3.63,13.49.71,2.13,4.61,1.18,5.66.09,1.87-1.95,3.87-12.99-2.03-13.58ZM127.98,140.43c-4.78-2.52-5.44,3.71-5.09,6.83.24,2.14,2.95,6.24,6.87,4.41,2.67-1.24,1.84-9.33-1.78-11.24Z"/>
  <path class="cls-2" d="M74.83,143.75c-10.91,3.79-20.11-4.68-22.54-14.12-1.42-5.54-.84-10.72,2.98-14.85,7.8-8.45,26.88-.7,30.13,8.97,2.43,7.24-2.64,17.25-10.57,20ZM76.59,138.6c3.42-5.77,1.49-15.25-3.99-18.27-3.57-1.97-7.1.8-8.13,3.5-2,5.23-.47,12.94,3.5,15.59,2.01,1.34,6.49,2.77,8.62-.82Z"/>
  <path class="cls-1" d="M150.75,134.37c5.89.59,3.9,11.63,2.03,13.58-1.04,1.09-4.94,2.04-5.66-.09-1.62-4.84.83-9.67,3.63-13.49Z"/>
  <path class="cls-1" d="M127.98,140.43c3.63,1.91,4.45,10,1.78,11.24-3.93,1.83-6.63-2.28-6.87-4.41-.35-3.12.31-9.34,5.09-6.83Z"/>
  <path class="cls-1" d="M76.59,138.6c-2.13,3.6-6.61,2.17-8.62.82-3.97-2.65-5.5-10.36-3.5-15.59,1.03-2.7,4.56-5.47,8.13-3.5,5.48,3.02,7.42,12.5,3.99,18.27Z"/>
</svg>