<?xml version="1.0" encoding="UTF-8"?>
<svg id="Calque_1" data-name="Calque 1" xmlns="http://www.w3.org/2000/svg" viewBox="0 0 165.26 163.86">
  <defs>
    <style>
      .cls-1 {
        fill: #2f2925;
      }

      .cls-2 {
        fill: #fcfcfc;
      }
    </style>
  </defs>
  <path class="cls-1" d="M127.79,96c4.68,11.22,19.29,27.27,5.77,41.48-7.19,7.55-18.23,10.11-28.25,11.95-23.86,4.39-47.23,3.39-69.58-5.49-9.79-3.89-17.74-10.46-19.76-21.66-3.74-20.69-6.77-74.29,9.71-89.99,8.52-8.12,29.06-10.29,35.52,2.28,4.7,9.15,4.93,18.6,6.21,28.72,5.53.14,10.49.72,15.42-.18,1.17-10.99,2.91-23.07,11.34-30.5,6.1-5.39,15.27-3.35,21.97-.28,19.7,9.01,15.92,45.82,11.66,63.66ZM97.55,87.75c-3.99-.61-7.86-.05-8.42,3.67-.75,5.01,4.31,7.91,8.96,7.63.17-3.91.24-7.4-.54-11.3ZM118.61,94.82c.88-6.51-6.79-8.31-10.61-7.1l.95,10.85c1.7,1.25,9.21-.39,9.66-3.75ZM44.31,88.77c-4.02-.33-8.13.5-9.02,4.42-.58,2.55,2.03,4.42,3.49,5.18,1.34.7,5.23,1.22,5.63-.17.94-3.32.19-6.04-.1-9.42ZM65.49,97.76c2.68-2.43,2.97-5.62,1.26-8.05-3.82-1.29-7.29-2.26-11.36-1.2-.63,3.99-.44,7.11.1,10.74,3.32-.27,6.05-.71,10-1.5ZM79.64,113.53c4.86-.41,6.95-4.01,6.62-7.64-.31-3.33-3.63-5.49-7.49-5.54-4.82-.06-7.88,3.19-7.88,7.03,0,4.33,3.4,6.61,8.76,6.16ZM36.12,131.7l1.73-18.47c-2.88-.32-6.17,1.75-6.9,4.91-1.2,5.19.68,10.01,5.17,13.56ZM56.4,139.42l.6-23.28c-4.52-3.35-9.71-5.3-15.69-3.94.77,6.72-3.78,14.52-.97,20.61,2.38,5.16,11.96,5.83,16.06,6.62ZM115.55,136.57c.14-8.76-1.45-15.83-2.49-23.81-5.54,1.4-8.49,3.45-12.94,5.33.04,7.81-.89,14.9.44,22.28,5.64-1.14,9.89-1.81,15-3.8ZM125.58,117.96c-1.96-3.56-6.76-4.21-9.88-4.42.72,7.57,1.65,14.18,3.33,21.53,6.68-2.99,9.97-10.89,6.55-17.11ZM77.88,141.38l-.59-20.25c-6.16-.24-11.1-1.38-16.69-3.69-1.11,7.49-1.96,14.48-1,22.6,5.72,1.87,11.67,2.59,18.27,1.35ZM97.42,140.89c-.45-8.39.37-14.86-.84-21.79l-16.03,2.85-.14,20.37c5.95.03,10.72-.23,17.02-1.43Z"/>
  <path class="cls-2" d="M56.4,139.42c-4.1-.79-13.69-1.46-16.06-6.62-2.8-6.09,1.74-13.88.97-20.61,5.97-1.36,11.17.59,15.69,3.94l-.6,23.28Z"/>
  <path class="cls-2" d="M77.88,141.38c-6.6,1.24-12.55.52-18.27-1.35-.96-8.11-.12-15.11,1-22.6,5.58,2.31,10.53,3.46,16.69,3.69l.59,20.25Z"/>
  <path class="cls-2" d="M97.42,140.89c-6.3,1.2-11.06,1.46-17.02,1.43l.14-20.37,16.03-2.85c1.21,6.93.39,13.4.84,21.79Z"/>
  <path class="cls-2" d="M115.55,136.57c-5.11,1.99-9.36,2.66-15,3.8-1.33-7.38-.4-14.46-.44-22.28,4.45-1.88,7.4-3.93,12.94-5.33,1.04,7.97,2.63,15.05,2.49,23.81Z"/>
  <path class="cls-2" d="M79.64,113.53c-5.36.45-8.75-1.82-8.76-6.16,0-3.83,3.06-7.09,7.88-7.03,3.86.05,7.18,2.21,7.49,5.54.34,3.63-1.75,7.23-6.62,7.64Z"/>
  <path class="cls-2" d="M125.58,117.96c3.42,6.21.13,14.11-6.55,17.11-1.69-7.35-2.61-13.96-3.33-21.53,3.12.21,7.93.86,9.88,4.42Z"/>
  <path class="cls-2" d="M65.49,97.76c-3.95.78-6.67,1.23-10,1.5-.54-3.64-.73-6.76-.1-10.74,4.07-1.06,7.54-.09,11.36,1.2,1.71,2.43,1.41,5.62-1.26,8.05Z"/>
  <path class="cls-2" d="M118.61,94.82c-.46,3.36-7.96,5-9.66,3.75l-.95-10.85c3.82-1.21,11.5.59,10.61,7.1Z"/>
  <path class="cls-2" d="M36.12,131.7c-4.49-3.55-6.37-8.38-5.17-13.56.73-3.16,4.02-5.23,6.9-4.91l-1.73,18.47Z"/>
  <path class="cls-2" d="M44.31,88.77c.29,3.38,1.04,6.1.1,9.42-.39,1.39-4.29.87-5.63.17-1.46-.76-4.07-2.63-3.49-5.18.89-3.92,5-4.74,9.02-4.42Z"/>
  <path class="cls-2" d="M97.55,87.75c.78,3.9.72,7.39.54,11.3-4.65.28-9.71-2.62-8.96-7.63.56-3.72,4.43-4.28,8.42-3.67Z"/>
</svg>