<?xml version="1.0" encoding="UTF-8"?>
<svg id="Calque_1" data-name="Calque 1" xmlns="http://www.w3.org/2000/svg" viewBox="0 0 165.33 157.12">
  <defs>
    <style>
      .cls-1 {
        fill: #2f2925;
      }

      .cls-2 {
        fill: #fcfcfc;
      }
    </style>
  </defs>
  <path class="cls-1" d="M129.28,125.36c-6.3,7.24-12.49,13.33-21.44,15.64-18.26,4.73-37.84,6.14-55.38-1.5-23.22-10.12-35.05-47.89-24.08-73.83,13.64-32.25,58.19-39.31,85.6-24.45,22.64,12.28,30.72,48.05,21.37,72.74l21.49-.23c3.51-.04,7.22,2.69,6.83,5.92s-2.92,5.76-6.69,5.78c-9.05.03-17.4,1.42-27.7-.07ZM116.61,98.73c-.07-11.95-6.84-23.4-18.59-26.2-7.66-1.82-17.33,1.32-23.31,6.28-8.97,7.45-10.59,20.04-6.17,30.35,4.04,9.41,14.04,15.77,25.83,15.93,13.94.19,22.33-11.71,22.24-26.37Z"/>
  <path class="cls-2" d="M116.61,98.73c.09,14.66-8.3,26.56-22.24,26.37-11.78-.16-21.79-6.52-25.83-15.93-4.43-10.31-2.81-22.9,6.17-30.35,5.97-4.96,15.65-8.11,23.31-6.28,11.75,2.8,18.52,14.25,18.59,26.2ZM104.19,110.59c2.13-6.74,3.98-22.65-5.09-23.16-7.84-.43-9.13,23.66-1.07,25.59,1.86.45,5.2.62,6.16-2.43Z"/>
  <path class="cls-1" d="M104.19,110.59c-.97,3.05-4.3,2.88-6.16,2.43-8.06-1.93-6.77-26.02,1.07-25.59,9.08.5,7.22,16.42,5.09,23.16Z"/>
</svg>