<?xml version="1.0" encoding="UTF-8"?>
<svg id="Calque_1" data-name="Calque 1" xmlns="http://www.w3.org/2000/svg" viewBox="0 0 178.08 157.3">
  <defs>
    <style>
      .cls-1 {
        fill: #2f2925;
      }

      .cls-2 {
        fill: #fcfcfc;
      }
    </style>
  </defs>
  <path class="cls-1" d="M101.15,138.46c-23.14,1.19-55.7,4.37-76.08-5.95-9.52-4.82-14.83-14.24-13.18-24.53.95-5.89,7.35-8.56,9.46-13,1.91-8.85-1.32-18.42-.41-27.31,1.38-13.44,7.12-23.9,16.78-30.18,11.71-7.61,25.5-9.26,37.4-2.42,4.04,2.32,8.28,7.18,13.32,4.57s8.64-7.02,14.38-8.19c18.3-3.75,37.35,6.46,43.03,24.38,9.3,29.36-5.01,36.1,5.66,46.24,6.21,5.91,7.56,13.63,5.05,21.58-4.98,15.84-37.97,13.91-55.42,14.81ZM76.37,95.95c10.58-12.15,7.71-37.68.4-47.53-3.9-5.25-10.13-6.37-16.29-6.99-12.94-1.31-24.27,6.02-27.61,18.84-4.71,18.04-1.18,38.42,19.59,42.99,8.37,1.84,18.62-1.22,23.91-7.3ZM134.16,95.28c10.58-13.79,8.55-33.18-2.67-45.87-7.26-8.21-22.02-9.44-30.19-3.62-17.17,12.22-14.48,43.22-1.05,52.9,10.38,7.48,25.56,7.48,33.91-3.41ZM104.63,112.72c-1-5.65-26.41-1.3-23.46,3.95,1.04,1.85,24.01-.85,23.46-3.95Z"/>
  <path class="cls-2" d="M76.37,95.95c-5.29,6.08-15.54,9.14-23.91,7.3-20.77-4.57-24.3-24.95-19.59-42.99,3.34-12.81,14.67-20.14,27.61-18.84,6.16.62,12.4,1.74,16.29,6.99,7.31,9.86,10.18,35.39-.4,47.53ZM72.74,60.63c-.32-2.85-1.96-5.73-4.33-5.52-1.55.14-5.07.17-6.05,2.47-4.59,10.72-4.68,34.28,7.43,33.29,7.41-.6,3.91-21.74,2.95-30.24Z"/>
  <path class="cls-2" d="M134.16,95.28c-8.35,10.88-23.53,10.89-33.91,3.41-13.43-9.68-16.11-40.68,1.05-52.9,8.17-5.82,22.92-4.59,30.19,3.62,11.22,12.69,13.25,32.08,2.67,45.87ZM132.01,62c-.73-2.94-3.31-5.34-5.15-5.8-11.83-2.95-8.52,21.88-6.17,29.74,1.08,3.62,4.49,4.94,7.19,4.46,8.3-1.46,5.03-24.76,4.13-28.41Z"/>
  <path class="cls-2" d="M104.63,112.72c.55,3.11-22.42,5.81-23.46,3.95-2.96-5.26,22.46-9.6,23.46-3.95Z"/>
  <path class="cls-1" d="M72.74,60.63c.95,8.5,4.45,29.64-2.95,30.24-12.11.98-12.02-22.57-7.43-33.29.98-2.3,4.5-2.33,6.05-2.47,2.37-.21,4.01,2.67,4.33,5.52Z"/>
  <path class="cls-1" d="M132.01,62c.9,3.65,4.18,26.96-4.13,28.41-2.69.47-6.1-.84-7.19-4.46-2.35-7.86-5.66-32.69,6.17-29.74,1.84.46,4.42,2.85,5.15,5.8Z"/>
</svg>