<?xml version="1.0" encoding="UTF-8"?>
<svg id="Calque_1" data-name="Calque 1" xmlns="http://www.w3.org/2000/svg" viewBox="0 0 184 149.65">
  <defs>
    <style>
      .cls-1 {
        fill: #2f2925;
      }

      .cls-2 {
        fill: #fcfcfc;
      }
    </style>
  </defs>
  <path class="cls-2" d="M139.51,104.91c3.28,13.81-10.03,27.79-23.75,31.92-18.45,5.56-39.06,4.49-55.36-6.34-2.71-1.8-5.19-2.54-7.45-3.77.54-3.03-1.74-4.95-3.47-7.93-9.05-15.54-10.52-36.38-1.46-51.94,7.17-12.32,21.68-14.62,31.97-6.41,6.46,5.16,15.16,4.45,21.48-.97,5.14-4.41,14.73-8.67,20.51-3.04,8.98,8.75,8.42,22.82,4.8,33.92,5.39,3.92,11.25,8.33,12.73,14.56ZM116.37,75.16c-1.04-.98-4.2-2.34-5.84-.33-3.77,4.61-4.76,13.8.15,17.92,2.62,2.2,6.41-.97,7.42-2.83,1.56-2.88.38-12.76-1.72-14.76ZM70.06,78.21c-5.35,2.79-3.67,13.82-.82,18.09,1.96,2.93,6.23,1.3,7.94.05,4.81-3.52-.17-21.76-7.12-18.14ZM107.14,102.23c-3.68-3.11-11.56-1.87-14.16,1.73-1.77,2.44-.25,5.35,1.28,5.99,3.92,1.65,8.62,1.18,12.19-1.17,1.3-.85,3.08-4.53.7-6.55ZM67.4,116.59c11.62,11.82,26.31,7.08,38.21,2.93,6.24-2.17,13.84,1.35,19.66-4.07,2.59-2.41,6.29-5.71,2.54-10.1-9.31,16.38-15.07,4.87-32.5,12.96-9.33,4.33-17.75-1.79-27.91-1.72Z"/>
  <path class="cls-1" d="M139.51,104.91c-1.48-6.22-7.34-10.63-12.73-14.56,3.62-11.1,4.18-25.17-4.8-33.92-5.78-5.63-15.37-1.37-20.51,3.04-6.32,5.42-15.02,6.13-21.48.97-10.29-8.21-24.8-5.91-31.97,6.41-9.05,15.56-7.59,36.4,1.46,51.94,1.74,2.98,4.02,4.89,3.47,7.93-4.92-2.68-9.74-1-15.81-1.82-12.54-1.69-23.02-15.26-22.49-27.24.21-4.73,2.01-8.52,4.2-10.95,2.44-2.71,6.16-2.52,10.26-3.04.72-2.82,1.1-5.5,1.12-8.29.19-21.45,14.78-38.7,36.85-41.76-.99-10.76,1.51-21.43,11.16-25.42,2.75-1.14,6.03-.62,8.27.51,1.94.98,3,3.63,4.14,6.75,6.12-2.38,12.35-2.54,18.4-.43,5.58,1.95,3.42,9.74,6.62,11.96,3.41,2.36,8.28.41,9.63,5.65.82,3.19.6,5.87-3.84,9.64,8.72,5.32,13.06,13.72,14.66,23.02,2.44,14.16,13.3,1.59,13.38,24.43.03,7.22-2.99,14.7-10,15.19Z"/>
  <path class="cls-1" d="M67.4,116.59c10.16-.07,18.58,6.06,27.91,1.72,17.44-8.09,23.2,3.41,32.5-12.96,3.75,4.39.05,7.69-2.54,10.1-5.83,5.42-13.43,1.9-19.66,4.07-11.9,4.15-26.59,8.89-38.21-2.93Z"/>
  <path class="cls-1" d="M70.06,78.21c6.95-3.62,11.94,14.62,7.12,18.14-1.71,1.25-5.98,2.88-7.94-.05-2.86-4.27-4.53-15.3.82-18.09Z"/>
  <path class="cls-1" d="M116.37,75.16c2.1,2,3.28,11.88,1.72,14.76-1,1.86-4.8,5.03-7.42,2.83-4.91-4.12-3.92-13.31-.15-17.92,1.64-2,4.8-.65,5.84.33Z"/>
  <path class="cls-1" d="M107.14,102.23c2.38,2.01.6,5.69-.7,6.55-3.56,2.35-8.27,2.82-12.19,1.17-1.53-.64-3.05-3.55-1.28-5.99,2.61-3.6,10.48-4.84,14.16-1.73Z"/>
</svg>