<?xml version="1.0" encoding="UTF-8"?>
<svg id="Calque_1" data-name="Calque 1" xmlns="http://www.w3.org/2000/svg" viewBox="0 0 222.67 169.33">
  <defs>
    <style>
      .cls-1 {
        fill: #2f2925;
      }

      .cls-2 {
        fill: #fcfcfc;
      }
    </style>
  </defs>
  <path class="cls-2" d="M171.69,60c16.95,20.93,18.63,23.46,15.06,49.35-1.01,7.31-3.98,12.03-7.86,17.72-3.04,4.46-6.23,6.07-10.33,8.86-16,10.9-33.78,13.38-52.88,11.03-17.01-2.09-33.42-5.3-46.82-16.12-10.16-8.19-15.03-18.19-15.15-31.19-.04-4.41-1.44-8.11-.13-12.85,5-18.21,9.2-17.45,10.64-23.69.23-1.02-1.62-2.9-2.98-3.08-5.05-.67-6-4.27-9.39-7.47-9.5-8.97-17.43-24.31-10.96-37.39,2.79-5.65,14.52-2.57,18.58.74,13.33,10.84,16.7,20.89,20.51,37.1,5.66,1.08,10.14-3.68,15.48-4.91,9.99-2.28,20.22-3.41,30.49-4.2,3.92-.3,24.12,4.06,30.7,6.2,3.37-15.85,13.04-29.29,29.15-33.26,4.18-1.03,7.32,1.2,9.76,3.28,3.09,2.64,2.71,6.4,2.93,10.61.39,7.46-4.77,12.3-9.83,16.88-5.11,4.61-9.5,9.25-16.96,12.39ZM86.9,62.6c-5.96,2.1-9.11,9.21-6.58,13.75s7.48,6.74,13.48,5.28c3.94-.96,7.32-7.53,5.43-12.88-1.24-3.51-7.36-7.9-12.32-6.14ZM148.7,62.21c-5.08,2.5-6.35,8.27-3.95,12.87,2.27,4.34,7.89,6.13,12.46,3.14,3.73-2.43,5.75-8.12,3.51-12.56-1.97-3.9-7.68-5.59-12.02-3.45ZM155.96,93.51c-1.83-7.81-8.6,14.83-27.69,11.45-1.69-.3-1.49-9.85.11-11.09,2.63-2.03,8.89-1.32,9.18-6.94.58-11.44-28.81-7.64-29.63-2.4-1.85,11.81,19.25,3.92,14.18,21.8-12.11.17-22.01-3.42-30.7-10.47.14,3.66,2.16,6.87,4.88,8.59,15.8,10.05,34.48,9.34,50.74.31,4.16-2.31,10.23-5.71,8.93-11.26Z"/>
  <path class="cls-1" d="M155.96,93.51c1.3,5.55-4.77,8.95-8.93,11.26-16.26,9.03-34.94,9.74-50.74-.31-2.71-1.73-4.74-4.93-4.88-8.59,8.69,7.04,18.59,10.63,30.7,10.47,5.07-17.89-16.03-10-14.18-21.8.82-5.24,30.21-9.05,29.63,2.4-.28,5.62-6.55,4.91-9.18,6.94-1.6,1.24-1.8,10.79-.11,11.09,19.09,3.39,25.86-19.25,27.69-11.45Z"/>
  <path class="cls-1" d="M86.9,62.6c4.97-1.75,11.08,2.63,12.32,6.14,1.89,5.36-1.49,11.92-5.43,12.88-5.99,1.47-11.04-.9-13.48-5.28s.62-11.65,6.58-13.75Z"/>
  <path class="cls-1" d="M148.7,62.21c4.34-2.14,10.05-.46,12.02,3.45,2.24,4.43.21,10.12-3.51,12.56-4.57,2.99-10.19,1.21-12.46-3.14-2.4-4.6-1.13-10.36,3.95-12.87Z"/>
</svg>