<?xml version="1.0" encoding="UTF-8"?>
<svg id="Calque_1" data-name="Calque 1" xmlns="http://www.w3.org/2000/svg" viewBox="0 0 169.36 233.12">
  <defs>
    <style>
      .cls-1 {
        fill: #2f2925;
      }

      .cls-2 {
        fill: #fcfcfc;
      }
    </style>
  </defs>
  <path class="cls-2" d="M33.64,128.74c-10.41-24.74-9.52-48.49-7.74-75.48.24-3.65,3.32-18.1,10.02-20.21,3.69-1.17,7.23-.63,10.71,1.99,15.13,11.38,15.22,34.1,15.99,52.69.63,15.19-1.95,29.56-3.88,45.63,11.34,1.32,14.73-1.6,29.43.03l-5.43-26.12c-2.59-12.46-.51-24.7-.46-37.36.05-11.07,2.9-22.41,7.61-32.24,2.46-5.13,8.04-7.07,13.04-7.02,15.78.16,17.44,38.43,16.56,51.9-1.3,19.67-3.72,38.71-12.67,56.73,7.12,5.38,14.42,8.32,18.95,15.67,10.49,17.02,8.42,41.46-7.26,54.84-19.41,16.57-62.34,15.24-80.84,3.75-8.44-5.24-16.17-13.69-19.25-23.44-6.03-19.1,3.39-39.07,19.57-49.46.99-5.11-2.64-7.89-4.33-11.91ZM118.14,189.67c1.49-5.31-.86-9.24-5.7-10.26-3.88-.81-6.76,2.14-7.99,6.44-1.36,4.77-1.1,9.78,4.07,10.81,4.34.86,8.01-1.27,9.62-7ZM50.24,190.38c-.46-5.24-1.96-8.68-5.53-9.48-3.99-.9-7.85-.11-9.51,2.38-2.4,3.61-1.11,7.16.47,10.38,1.82,3.7,4.88,4.94,8.77,4.35,3.39-.51,6.26-2.3,5.79-7.63ZM91.94,209.82c.85-.94,2.56-3.98-.82-4-2.33-.01-4.43,3.36-6.47,2.58-2.18-.83-3.8-1.84-4.01-4.24-.18-2.04,2.11-3.21,3.31-5.06,1.42-2.17-.18-3.91-1.27-4.9-1.87-1.69-4.54-1.87-6.69-1.55-4.13.63-5.56,2.44-5.56,5.76,0,3.61,4.87,2.44,6.26,4.81,1.67,2.87-2.45,5.52-4.4,5.14s-3.99-.31-7-1.67c-.66,4.16,4.4,7.1,8.86,5.89,11.38-3.09,11.83,3.83,17.8-2.77Z"/>
  <path class="cls-1" d="M91.94,209.82c-5.97,6.6-6.41-.32-17.8,2.77-4.46,1.21-9.52-1.73-8.86-5.89,3.01,1.36,5.07,1.29,7,1.67s6.08-2.27,4.4-5.14c-1.38-2.37-6.26-1.21-6.26-4.81,0-3.32,1.44-5.13,5.56-5.76,2.14-.33,4.81-.15,6.69,1.55,1.09.99,2.68,2.73,1.27,4.9-1.2,1.84-3.49,3.02-3.31,5.06.21,2.4,1.83,3.41,4.01,4.24,2.05.78,4.14-2.59,6.47-2.58,3.38.02,1.68,3.05.82,4Z"/>
  <path class="cls-1" d="M50.24,190.38c.47,5.33-2.4,7.11-5.79,7.63-3.89.59-6.95-.65-8.77-4.35-1.58-3.22-2.87-6.77-.47-10.38,1.65-2.49,5.52-3.27,9.51-2.38,3.56.8,5.07,4.24,5.53,9.48Z"/>
  <path class="cls-1" d="M118.14,189.67c-1.6,5.72-5.27,7.86-9.62,7-5.17-1.03-5.43-6.04-4.07-10.81,1.23-4.31,4.1-7.26,7.99-6.44,4.85,1.02,7.19,4.95,5.7,10.26Z"/>
</svg>