<?xml version="1.0" encoding="UTF-8"?>
<svg id="Calque_1" data-name="Calque 1" xmlns="http://www.w3.org/2000/svg" viewBox="0 0 173.27 156.41">
  <defs>
    <style>
      .cls-1 {
        fill: #2f2925;
      }

      .cls-2 {
        fill: #fcfcfc;
      }
    </style>
  </defs>
  <path class="cls-2" d="M130.11,90.8c-3.98,8.14-6.61,15.61-13.25,20.92-9.87,7.89-22.12,13-35.01,13.11-25.77.21-53.21-4.74-63.14-31.46-5.11-13.75-5.76-29.87.15-43.3,8.08-18.36,23.92-29.87,43.12-33.5,25.83-4.89,51.06,1.37,62.92,26.23,4.85,10.18,6.35,20.57,7.35,31.74l23.34.74c2.23.07,4.12,1.33,4.77,2.67,4.06,8.38-23.04,12.52-30.24,12.86ZM99.53,94.51c11.63-8.78,9.25-28.49-2.8-35.27-6.28-3.53-12.36-1.22-16.89,2.27-10.05,7.74-7.87,26.97.85,31.98,5.01,2.87,12.57,5.76,18.83,1.02Z"/>
  <path class="cls-1" d="M99.53,94.51c-6.27,4.73-13.83,1.85-18.83-1.02-8.72-5.01-10.9-24.24-.85-31.98,4.53-3.49,10.61-5.8,16.89-2.27,12.05,6.78,14.43,26.48,2.8,35.27Z"/>
</svg>