<?xml version="1.0" encoding="UTF-8"?>
<svg id="Calque_1" data-name="Calque 1" xmlns="http://www.w3.org/2000/svg" viewBox="0 0 192 175.33">
  <defs>
    <style>
      .cls-1 {
        fill: #2f2925;
      }

      .cls-2 {
        fill: #fcfcfc;
      }
    </style>
  </defs>
  <path class="cls-1" d="M140.81,97.43c-3.08-5.23-6.08-11.66-12.99-12.82-12.56-2.1-23.93,12.25-26.08,25.69l-5.88-13.45c-4.28-9.79-13.68-14.39-24.39-11.64-6.31,1.62-13.61,4.27-16.11,11.05-3.83,10.39-1.73,21.51,3.17,32.34-7.71.11-12.71,3.9-13.91,10.3-8.38-10.18-6.51-47.54,1.19-61.46-10.3-1.18-18.78-6.77-24.53-14.55-8.1-10.97-10.36-24.32-3.41-35.74,9.43-15.52,27.01-20.88,43.67-14.36,21.02,8.22,21.26,24.21,17.58,45.93,7.45-.46,12.51-.59,20.27-.34-8.16-13.8-6.01-27.82,3.99-40.03,11.76-14.34,36.09-17.13,49.71-2.52,10.1,10.84,12.01,29.56,5.96,42.27-2.45,5.14-7.63,8.43-11.34,11.94s-8.96,2.89-13.98,5.43c3.77,6.99,6.89,14.36,7.07,21.97Z"/>
  <path class="cls-2" d="M140.81,97.43c.24,10.03-2.56,20.66-.13,29.98,1.36,5.25,7.02,8.24,4.49,14.9-5.23,13.76-19.52,15.1-34.63,16.36-16.12,1.34-65.11,2.04-65.91-19.76,1.2-6.4,6.21-10.2,13.91-10.3-4.9-10.83-7-21.95-3.17-32.34,2.5-6.78,9.8-9.43,16.11-11.05,10.7-2.75,20.11,1.85,24.39,11.64l5.88,13.45c2.15-13.44,13.52-27.8,26.08-25.69,6.91,1.16,9.91,7.58,12.99,12.82ZM82.45,106.06c-2.19-3.5-6.53-4.21-9.92-2.59-10.19,4.85,11.6,28.68,17.21,24,4.67-3.9-3.21-14.89-7.28-21.41ZM128.71,113.33c1.67-3.13.71-6.98-1.52-8.27-5.72-3.31-8.73,3.91-14.12,10.23-2.69,3.15-4.84,8.21-2.82,12.26,2.64,5.31,17.45-12.34,18.46-14.22ZM100.37,142.31c-3.08-.86-7.66-8.32-8.35-4.29-.86,5.03,4.49,8.76,8.26,9.25,4.57.59,9.07-1.74,10.57-6.54.6-1.93-.99-3.35-2.22-3.05-1.96.47-2.81,6.16-8.26,4.64Z"/>
  <path class="cls-1" d="M82.45,106.06c4.07,6.52,11.95,17.51,7.28,21.41-5.61,4.68-27.39-19.15-17.21-24,3.39-1.61,7.74-.91,9.92,2.59Z"/>
  <path class="cls-1" d="M128.71,113.33c-1,1.88-15.81,19.53-18.46,14.22-2.02-4.05.13-9.11,2.82-12.26,5.39-6.32,8.4-13.54,14.12-10.23,2.23,1.29,3.19,5.14,1.52,8.27Z"/>
  <path class="cls-1" d="M100.37,142.31c5.45,1.52,6.3-4.17,8.26-4.64,1.23-.3,2.82,1.13,2.22,3.05-1.5,4.81-5.99,7.13-10.57,6.54-3.77-.49-9.12-4.22-8.26-9.25.69-4.04,5.26,3.43,8.35,4.29Z"/>
</svg>