<?xml version="1.0" encoding="UTF-8"?>
<svg id="Calque_1" data-name="Calque 1" xmlns="http://www.w3.org/2000/svg" viewBox="0 0 161.25 173.33">
  <defs>
    <style>
      .cls-1 {
        fill: #2f2925;
      }

      .cls-2 {
        fill: #fcfcfc;
      }
    </style>
  </defs>
  <path class="cls-1" d="M19.95,128.24c1.26.77,25.2,8.63,33.72-4.39,5.81-8.87,4.17-30.98-12.31-36.33-5.52-1.79-11.05-4.25-17.16-1.21,0-5.86,5.46-10.97,6.01-16.99.45-4.95-6.38-24.57,4.37-24.58,6.03,0,7.37,7.95,9.96,12.82,6.9-3.93,12.72-5.3,21.01-6.98-.75-28.18-10.18-15.83-11.2-25.37-.42-3.95,1.05-7.95,5.09-10.56,4.6-2.97,9.71-1.32,12.5,2.3,3.83,4.97,1.59,9.59-.94,14.72-1.91,4.06.77,10.39,1.16,15.07.44,5.26,19.61,3.55,24.62,3.98.56-5.33,3.63-10.79,2.67-15.76-1.93-4.56-6.7-8.25-3.23-13.72,2.18-3.44,7.26-5.97,12.54-4.83,5.6,1.22,6.38,6.12,6.57,10.53.25,5.88-4.04,7.24-7.98,10.72-3.62,3.2-2.6,10.72-5.07,15.81,7.84,2.98,13.87,5.68,19.78,11.47,6.93-6.21,8.78-12.53,16.73-8.6,7.09,3.5,0,20.49-3.06,26.17,3.72,20.64,6.72,54.76-14.5,67.58-20.66,12.48-104.49,17.25-106.49-7.22-.48-5.84,1.4-10.98,5.21-14.65ZM111.96,132.38c11.79-6.56,15.24-17.18,14.34-29.68-5.22-6.64-11.49-14.98-21.12-16.24-14.57-1.9-28.27,13.11-24.82,27.52,1.19,4.96,2.14,10.75,5.33,14.38,5.98,6.82,18.5,8.34,26.28,4.01Z"/>
  <path class="cls-2" d="M19.95,128.24c-8.55-5.27-12.1-14.34-10.67-23.68,1.35-8.83,8.38-13.7,14.92-18.24,6.11-3.04,11.64-.59,17.16,1.21,16.48,5.35,18.12,27.46,12.31,36.33-8.52,13.01-32.46,5.16-33.72,4.39ZM36.07,95.12c-1.59.13-5.65.39-5.48,3.15.52,8.24,8.47,28.68,16.12,25.35,10.52-4.58-2.74-29.13-10.64-28.5Z"/>
  <path class="cls-2" d="M111.96,132.38c-7.78,4.33-20.3,2.81-26.28-4.01-3.19-3.64-4.14-9.42-5.33-14.38-3.44-14.41,10.25-29.42,24.82-27.52,9.63,1.26,15.91,9.6,21.12,16.24.91,12.49-2.55,23.12-14.34,29.68ZM107.51,103.39c-.21-3.06-2.45-5.9-4.87-6.39-6-1.23-11.53,11.39-14.53,15.94-2.31,3.51-1.35,7.87,2.05,9.95,7.56,4.62,17.86-12.06,17.35-19.5Z"/>
  <path class="cls-1" d="M36.07,95.12c7.9-.63,21.16,23.92,10.64,28.5-7.65,3.33-15.6-17.11-16.12-25.35-.17-2.76,3.89-3.03,5.48-3.15Z"/>
  <path class="cls-1" d="M107.51,103.39c.51,7.44-9.79,24.12-17.35,19.5-3.4-2.08-4.37-6.44-2.05-9.95,3-4.55,8.54-17.17,14.53-15.94,2.42.5,4.65,3.33,4.87,6.39Z"/>
</svg>