<?xml version="1.0" encoding="UTF-8"?>
<svg id="Calque_1" data-name="Calque 1" xmlns="http://www.w3.org/2000/svg" viewBox="0 0 160.71 151.97">
  <defs>
    <style>
      .cls-1 {
        fill: #2f2925;
      }

      .cls-2 {
        fill: #fcfcfc;
      }
    </style>
  </defs>
  <path class="cls-2" d="M87.31,126.51c-3.8,7.46-5.47,11.78-11.9,11.51-7.07-.3-8.72-5.17-10.21-13.6-4.35,5.61-8,10.14-13.81,7.85-9.51-3.74-2.2-19.23-4.47-22.81-4.93-7.78-16.21-1.04-24.07-32.99-5.72-23.25,5.73-43.36,28.38-50.85,15.07-4.98,31.1-4.62,47.29-3.11,6.23.58,10.95,2.85,16.45,4.77,18.99,6.6,29.73,22.94,29.64,42.94-.2,45.34-32.79,40.78-35.92,45.86-1.33,2.15,2.27,18.44-6.2,22.14-7.09,3.1-14.21-3.68-15.18-11.71ZM66.47,63.26c-4.87-7.4-12.13-9.7-20.3-7.78-5.03,1.18-8.84,3.53-10.94,8.73-4.72,11.72.49,23.47,10,31.48,4.13,3.48,9.38,4.65,15.22,2.63,14.34-4.97,12.62-25.04,6.02-35.06ZM111.66,99.12c7.4-5.63,9.58-12.5,8.49-21.61s-5.38-17.57-13.96-20.11c-8.19-2.42-19.35-.62-23.59,7.86s-3.2,20.81,1.39,28.71c6.32,10.88,18.81,11.88,27.67,5.15ZM72.77,99.81c-2.33.3-8.98,13.65-3.81,14.31,8.71-3.56,8.92,5.22,12.59,1.26,3.43-3.7-4.62-16.11-8.79-15.58Z"/>
  <path class="cls-1" d="M111.66,99.12c-8.86,6.73-21.35,5.74-27.67-5.15-4.59-7.91-5.72-20.07-1.39-28.71s15.41-10.28,23.59-7.86c8.58,2.54,12.87,11.05,13.96,20.11s-1.09,15.98-8.49,21.61Z"/>
  <path class="cls-1" d="M66.47,63.26c6.6,10.02,8.32,30.09-6.02,35.06-5.85,2.02-11.09.86-15.22-2.63-9.51-8.02-14.72-19.76-10-31.48,2.1-5.2,5.9-7.56,10.94-8.73,8.18-1.92,15.43.38,20.3,7.78Z"/>
  <path class="cls-1" d="M72.77,99.81c4.16-.53,12.21,11.88,8.79,15.58-3.67,3.96-3.89-4.82-12.59-1.26-5.18-.67,1.48-14.02,3.81-14.31Z"/>
</svg>