<?xml version="1.0" encoding="UTF-8"?>
<svg id="Calque_1" data-name="Calque 1" xmlns="http://www.w3.org/2000/svg" viewBox="0 0 157.45 139.87">
  <defs>
    <style>
      .cls-1 {
        fill: #2f2925;
      }

      .cls-2 {
        fill: #fcfcfc;
      }
    </style>
  </defs>
  <path class="cls-1" d="M66.58,56.37l1.28,11.17c7.98,1,15.43,1.55,23.11-.08l.51-7.41c1.19.83,3.85-.24,5.62,1.78-.09,1.94-.65,4.12-.07,6.14.33,1.15,18.83,4.1,26.45,17.45,9.42,16.5,1.54,39.5-17.37,44.91-17.3,4.95-57.34,6-69.39-14.79-3.88-6.69-4.33-16.4-2.42-23.54,3.41-12.75,15.18-18.85,26.67-22.89,2.55-1.74-.34-6.62-.05-8.74.36-2.65,4.32-2.46,5.65-4.01ZM67.53,82.55c7.1,7.27,18.97,5.95,24.95-1.57,1.29-1.62.7-3.77-.48-4.67-1.25-.96-2.66.51-4.04,1.6-14.23,11.12-18.2-5.28-21.56.02-.89,1.4-.5,2.97,1.12,4.63Z"/>
  <path class="cls-2" d="M66.58,56.37c-1.33,1.54-5.29,1.35-5.65,4.01-9.5-.71-18.41-6.23-21.21-16.11-1.94-6.83,1.37-12.43,5.89-16.63,4.38-4.07,11.28-5.25,17.97-2.55,8.25,3.33,13.17,14.85,10.12,23.32-1.31,3.62-5.11,5.62-7.11,7.96ZM65.26,46.79c-3.84-3.7-16.61-17.71-19.04-11.96-.51,1.2-.37,3.08,1.12,4.28,6.34,5.09,14.05,16.06,17.54,12.42.74-.77,1.78-3.39.38-4.73Z"/>
  <path class="cls-2" d="M97.1,61.84c-1.77-2.02-4.43-.95-5.62-1.78-5.83-4.06-9.55-8.84-9.87-14.53-.38-6.73,1.44-13.37,6.98-17.13,7.49-5.08,16.77-3.01,22.67,3.02,5.63,5.77,5.5,14.09,1.86,22.15-2.75,6.09-9.95,7.21-16.02,8.27ZM107.3,37.64c-1.07-11.42-16.03,9.39-18.7,12.88-.9,1.17.51,3.22,1.29,3.33,4.42.58,17.7-13.12,17.41-16.2Z"/>
  <path class="cls-2" d="M67.53,82.55c-1.62-1.66-2.01-3.23-1.12-4.63,3.35-5.29,7.33,11.11,21.56-.02,1.38-1.08,2.79-2.55,4.04-1.6,1.18.9,1.76,3.05.48,4.67-5.98,7.53-17.85,8.84-24.95,1.57Z"/>
  <path class="cls-1" d="M65.26,46.79c1.4,1.35.36,3.96-.38,4.73-3.49,3.63-11.2-7.33-17.54-12.42-1.49-1.2-1.63-3.07-1.12-4.28,2.43-5.75,15.2,8.27,19.04,11.96Z"/>
  <path class="cls-1" d="M107.3,37.64c.29,3.09-12.99,16.79-17.41,16.2-.78-.1-2.19-2.15-1.29-3.33,2.67-3.49,17.63-24.3,18.7-12.88Z"/>
</svg>