<?xml version="1.0" encoding="UTF-8"?>
<svg id="Calque_1" data-name="Calque 1" xmlns="http://www.w3.org/2000/svg" viewBox="0 0 218.67 212.88">
  <defs>
    <style>
      .cls-1 {
        fill: #2f2925;
      }

      .cls-2 {
        fill: #fcfcfc;
      }
    </style>
  </defs>
  <path class="cls-1" d="M50.35,147.22c7.51-.03,13.54.92,20.29-.71,2.81-29.39,2.48-45.93,8.75-75.11.3-1.42,2.18-16.74,7.5-16.92,2.29-.08,5.41-.24,6.3,2.59,5.73,18.24,7.1,36.56,5.47,56.38,12.14-2.47,23.36-.69,34.63,3.95l2.25-27.89c.55-6.85,6.35-39.41,13.98-39.21,3.35.09,6.17,1.86,6.45,5.79.65,9.11,3.86,17.45,4.62,26.66l1.36,16.63-3.79,61.25c-.55,8.93-3.47,15.72-6.73,23.41s-7.45,13.01-16.17,16.28c-14,5.24-29.51,5.63-45.02,5.76-14.27.12-28.33-1.84-40.62-9.2-10.83-6.48-19.67-16.72-19.4-29.49.25-11.78,8.07-20.12,20.15-20.17ZM93.07,132.19c-1.74-.16-4.94.25-6.16,2.66-3.58,7.08-3.34,15.89,1.1,22.41,1.59,2.34,4.39,3.26,6.69,2.71,8.65-2.06,8.1-26.89-1.63-27.78ZM136.15,156.99c2.33-5.59,4.86-18.74-2.66-21.89-3.05-1.27-5.47.55-7.85,2.57-4.18,3.56-9.35,21.31-.08,24.67,3.47,1.25,8.67-.77,10.59-5.35ZM79.37,177.84c4.86-1.06,5.32-8.47,1.97-11.28-15.35-12.9-37.11-13.64-39.1-1.99-2.46,14.37,27.02,15.48,37.13,13.27Z"/>
  <path class="cls-2" d="M79.37,177.84c-10.11,2.2-39.59,1.1-37.13-13.27,1.99-11.65,23.75-10.9,39.1,1.99,3.35,2.81,2.89,10.22-1.97,11.28Z"/>
  <path class="cls-2" d="M136.15,156.99c-1.91,4.58-7.12,6.61-10.59,5.35-9.27-3.35-4.1-21.11.08-24.67,2.38-2.03,4.8-3.85,7.85-2.57,7.53,3.14,5,16.3,2.66,21.89Z"/>
  <path class="cls-2" d="M93.07,132.19c9.73.9,10.28,25.72,1.63,27.78-2.3.55-5.1-.37-6.69-2.71-4.44-6.53-4.69-15.34-1.1-22.41,1.22-2.41,4.43-2.82,6.16-2.66Z"/>
</svg>