<?xml version="1.0" encoding="UTF-8"?>
<svg id="Calque_1" data-name="Calque 1" xmlns="http://www.w3.org/2000/svg" viewBox="0 0 204 136.51">
  <defs>
    <style>
      .cls-1 {
        fill: #2f2925;
      }

      .cls-2 {
        fill: #fcfcfc;
      }

      .cls-3 {
        fill: #c7c0b8;
      }
    </style>
  </defs>
  <path class="cls-1" d="M38.43,120.02c-.18-.73-.73-1.29-1.45-1.49l-.45-1.62,12.02-17.9c6.58,6.34,9.81,14.23,16.1,21.98,5.8-6.83,8.63-13.52,13.7-20.97l16.13,21.8,13.34-23.39c7.5,7,10.9,15.54,16.62,23.57l13.93-23.68c3.57,2.59,4.45,5.86,8.01,7.01-.62-5.82-4.36-9.54-8.92-12.04-5.41,6.84-8.18,13.93-13.01,21.76-4.34-3.61-15.28-27.35-20.14-18.42l-10.12,18.59-15.73-21.38-14.15,20.26c-5.03-6.93-8.52-13.95-14.98-19.87l-15.09,19.21c-8.88-6.68-12.42-28.29-6.28-33.96,1.84-1.7,4.62-2.3,7.65-2.43l25.65-1.1c3.92-10.6,9.62-19.26,14.67-28.78l17.88-33.67c1.9-3.58,3.9-5.81,8.02-5.3,3.32.41,5.25,3.5,5.56,7.56.98,13.05,1.74,25.52,1.79,38.72,7.18.21,13.11.41,19.42-.14,12.49-18.93,14.96-25.18,29.13-43.51,2.37-3.06,5.64-4.54,9.18-3.18,1.99.76,4.49,3.58,4.75,7.07,1.6,21.15.07,42.07-1.7,63.43-.48,5.8.91,11.17.86,16.84-.08,8.47-.42,16.41-1,25.06-.86,12.92-59.25,11.98-70.09,12.28-11.99.33-39.84.2-49.37-3.73-4.65-1.92-7.98-6.26-11.94-8.57ZM83.03,80.45c.6-4.65,1.46-7.95.15-11.68-.65-1.84-5.29-1.2-6.96-.57s-4.69,3-4.01,5.66c1.2,4.67,6.39,6.11,10.81,6.58ZM157.11,71.08c-5.52-2.29-11.82-3.72-16.36-2.07-2.12,3.44-1.26,8.91-1.66,12.88,7.17-1.51,15.06-3.04,18.02-10.81ZM100.34,80.14c.86-5.42-5.25-7.72-9.37-9.91-.93,3.6-.6,7.04.13,11.03,2.32.96,8.64,2.68,9.23-1.11ZM131.05,82.58c.5-4.19,1.12-7.05.56-11-4.26,1.56-15.57,5.16-12.57,10.77,4.13,1.12,7.83,1.58,12.01.23Z"/>
  <path class="cls-2" d="M36.53,116.91c-1.72-.9-1.99-2.28-2.29-3.47l15.09-19.21c6.46,5.92,9.95,12.94,14.98,19.87l14.15-20.26,15.73,21.38,10.12-18.59c4.86-8.93,15.8,14.81,20.14,18.42,4.83-7.83,7.6-14.93,13.01-21.76,4.56,2.5,8.3,6.23,8.92,12.04-3.56-1.15-4.43-4.42-8.01-7.01l-13.93,23.68c-5.72-8.03-9.13-16.58-16.62-23.57l-13.34,23.39-16.13-21.8c-5.07,7.45-7.91,14.14-13.7,20.97-6.3-7.75-9.52-15.64-16.1-21.98l-12.02,17.9Z"/>
  <circle class="cls-2" cx="36.31" cy="122.12" r=".7"/>
  <path class="cls-2" d="M38.43,120.02c-.91-.53-1.18-1.27-1.45-1.49.72.2,1.27.76,1.45,1.49Z"/>
  <path class="cls-2" d="M157.11,71.08c-2.97,7.77-10.86,9.3-18.02,10.81.4-3.98-.46-9.44,1.66-12.88,4.54-1.65,10.84-.21,16.36,2.07Z"/>
  <path class="cls-2" d="M83.03,80.45c-4.42-.48-9.61-1.92-10.81-6.58-.69-2.66,2.33-5.02,4.01-5.66s6.31-1.27,6.96.57c1.31,3.73.45,7.03-.15,11.68Z"/>
  <path class="cls-2" d="M131.05,82.58c-4.19,1.35-7.88.9-12.01-.23-3-5.62,8.3-9.21,12.57-10.77.56,3.94-.06,6.81-.56,11Z"/>
  <path class="cls-3" d="M100.34,80.14c-.6,3.79-6.92,2.07-9.23,1.11-.73-3.99-1.06-7.43-.13-11.03,4.12,2.19,10.22,4.49,9.37,9.91Z"/>
</svg>