<?xml version="1.0" encoding="UTF-8"?>
<svg id="Calque_1" data-name="Calque 1" xmlns="http://www.w3.org/2000/svg" viewBox="0 0 206.67 120.68">
  <defs>
    <style>
      .cls-1 {
        fill: #2f2925;
      }

      .cls-2 {
        fill: #fcfcfc;
      }
    </style>
  </defs>
  <path class="cls-1" d="M65.86,72.42c7.15,2.56,9.85,10.98,13.54,17.1,5.8-5.57,10.59-14.61,19.25-14.03,5.84.39,9.38,7.74,13.25,11.66,4.16-2.75,7.3-10.91,14.24-11.83s10.47,8.65,15.8,11.46c3.4-2.67,3.58-7.52,6.73-9.37,7-4.11,13.94,1.32,17.23,8.85,4.4-1.74,4.09-12.46,11.67-12.46,2.75,0,5.01,1.77,6.46,4.69,3.33,6.74,4.25,15.46-1.79,21.06-8.99,8.33-63.23,6.21-77,5.84l-36.63-.98c-10.36-.28-23.77-3.33-30.58-11.9-9.82-12.34-10.48-29.39-10.91-44.45-.26-9-1.43-16.94.26-25.61.82-4.22,3.84-7.21,5.75-10.96,2.68-5.27,8.27-7.13,13.43-7.59,6.18-.55,9.98,4.19,14.46,9.52,6.88-9.02,12.89-15.05,22.55-12.29,10.86,3.11,12.72,21.28,13.38,32.63h54.32c6.99-2.64,19.32-13.25,28.02-8.87,16.39,8.27.59,36.41-5.9,42.01-5.56,4.8-13.51,4.49-17.37-1.91-4.84-8.03-8.44,9.49-17.91,7.53-5.47-1.13-8.46-5.74-12.4-10.63l-11.32,10.11c-5.05,4.51-16.09-6.46-19.83-12.45-2.97,5.46-3.66,9.73-7.74,12.86-4.34,3.33-9.92,4.21-14.04.34-3.73-3.5-5.77-8.21-10.11-11.57-7.93,2.28-12.19,10.18-12.68,17.81,5.17-2.28,9.19-8.96,15.86-6.57ZM81.22,16.84c-1.61.06-4.21.92-4.86,3.39-1.21,4.59-5.05,21.04.98,21.93,7.21,1.07,11.98-25.6,3.88-25.32ZM49.77,21.96c-1.61-2.02-4.73-1.01-5.97-.08-5.15,3.82-.1,18.08,4.46,22.75,1.77,1.81,4.85-.46,6.04-1.52,4.84-4.3-.22-15.76-4.53-21.15Z"/>
  <path class="cls-2" d="M49.77,21.96c4.3,5.39,9.37,16.85,4.53,21.15-1.19,1.05-4.27,3.32-6.04,1.52-4.57-4.66-9.62-18.93-4.46-22.75,1.25-.93,4.36-1.94,5.97.08Z"/>
  <path class="cls-2" d="M81.22,16.84c8.1-.28,3.33,26.39-3.88,25.32-6.03-.89-2.19-17.34-.98-21.93.65-2.46,3.26-3.33,4.86-3.39Z"/>
</svg>