<?xml version="1.0" encoding="UTF-8"?>
<svg id="Calque_1" data-name="Calque 1" xmlns="http://www.w3.org/2000/svg" viewBox="0 0 172 164">
  <defs>
    <style>
      .cls-1 {
        fill: #2f2925;
      }

      .cls-2 {
        fill: #fcfcfc;
      }
    </style>
  </defs>
  <path class="cls-2" d="M97.87,148.03c-12.69-2.92-9.49-15.57-14.24-21.64-8.17,15.26-7.69,18.79-23.65,19.6-7.63.39-12.46-3.41-13.7-11.05-1.44-8.82,2.93-15.69,8.33-23.54-8.26,1.34-14.55,4.87-22.38,3.66-6.42-.99-11.37-6.99-12.52-11.75-1.74-7.15.61-13.35,6.17-17.52,5.72-4.29,12.41-5.35,19.42-7.52-13.24-20.46-10.62-46.1,7.67-61.81C74.5-2.04,117.28-.87,133.71,30.03c9.26,17.41,6.3,37.93-8.32,51.02,9.12,7.64,26.28,24.28,15.82,35.39-8.53,9.06-16.53,5.27-26.87-1.04,2.72,9.48,4.29,19.24-.61,27.49-3.58,6.02-9.79,6.54-15.86,5.15ZM58.79,88.94c3.96,3.15,9.37,3.11,12.68,1.27,3.5-1.95,4.23-6.43,4.8-10.79,1.5-11.4-4.32-21.35-16.55-22.08-5.04-.3-10.89,3.73-10.68,9.46.29,8.02,3.37,17.06,9.74,22.14ZM102.57,93.39c13.43-2.03,21.67-14.7,17.1-26.58-1.68-4.37-5.26-7.51-9.01-7.76-11.37-.75-19.44,16.66-16.1,26.71,1.05,3.16,4.31,5.51,8.01,7.63Z"/>
  <path class="cls-1" d="M58.79,88.94c-6.38-5.08-9.45-14.12-9.74-22.14-.21-5.73,5.64-9.76,10.68-9.46,12.22.74,18.04,10.68,16.55,22.08-.57,4.35-1.3,8.84-4.8,10.79-3.31,1.84-8.73,1.89-12.68-1.27ZM68.03,84.03c1.17-5.94.48-10.43-2.29-14.91-1.65-1.72-6.07-2.3-7.04.4-1.73,4.85.37,9.69,2.21,13.95,1.98,1.97,4.78,2.44,7.12.56Z"/>
  <path class="cls-1" d="M102.57,93.39c-3.7-2.12-6.96-4.47-8.01-7.63-3.34-10.05,4.73-27.46,16.1-26.71,3.74.25,7.33,3.39,9.01,7.76,4.57,11.88-3.67,24.55-17.1,26.58ZM108.84,84.47c2.97-3.62,4.88-7.82,5.25-12.05.2-2.3-2.37-3.47-3.91-3.79-1.41-.3-3.81-.36-5.02,1.47-2.73,4.13-7.22,11.5-2.53,14.66,1.29.87,4.25,2.11,6.21-.29Z"/>
  <path class="cls-2" d="M68.03,84.03c-2.34,1.89-5.13,1.41-7.12-.56-1.84-4.26-3.94-9.09-2.21-13.95.96-2.7,5.38-2.12,7.04-.4,2.78,4.48,3.46,8.97,2.29,14.91Z"/>
  <path class="cls-2" d="M108.84,84.47c-1.97,2.4-4.93,1.16-6.21.29-4.69-3.16-.2-10.54,2.53-14.66,1.21-1.83,3.61-1.76,5.02-1.47,1.55.33,4.12,1.49,3.91,3.79-.37,4.23-2.28,8.43-5.25,12.05Z"/>
</svg>