<?xml version="1.0" encoding="UTF-8"?>
<svg id="Calque_1" data-name="Calque 1" xmlns="http://www.w3.org/2000/svg" viewBox="0 0 185.12 138.23">
  <defs>
    <style>
      .cls-1 {
        fill: #2f2925;
      }

      .cls-2 {
        fill: #fcfcfc;
      }
    </style>
  </defs>
  <path class="cls-2" d="M150.46,122.47c-5.79-.71-9.32-4.76-13.31-8.33-17.41,14.79-57.53,11.86-74.57-1.88-6.65-2.05-16.51,10.76-23.47,2.18-2.21-2.72-2.3-6.76-.38-11.49l-9.72-3.02c-3.5-1.09-4.94-4.1-5.12-7.09-.48-7.88,9.17-6.59,11.71-10.9-2.78-3.4-6.9-7.03-6.51-12.22.68-8.99,14.84-6.79,15.24-6.88,4.45-1-5.86-25.12,2.79-46.69,1.25-3.13,4.99-5.11,7.17-5.42,3.77-.54,5.74,3.05,8.05,5.74,8.33,9.72,15.93,19.32,19.93,32.13,14.7-2.8,27.43-3.38,41.6.87,3.72-11.93,16.92-39.51,31.13-34.04,11.64,4.49,2.62,39.19,1.85,51.72,5.05-1.57,9.9-.99,12.36,2.2,5.97,7.77-5.2,14.93-5.43,15.35-1.76,3.24,8.26,4.33,6.68,10.67-.72,2.89-3.25,5.44-7.09,6.1-12.64,2.16.32,5.54-3.42,14.47-1.2,2.87-4.09,7.19-9.46,6.53ZM92.45,76.51c2.74-2.97,3.72-6.21.34-8.08-3.78,6.31-8.64,8.49-14.8,8.35-5.33-.12-9.65-2.65-13.66-8.05-2.23,1.8-1.81,5.06.2,7.38,6.86,7.89,20.56,8.39,27.92.41ZM141.1,71.27c-7.3,3.62-12.19,7.19-19.19,6.07-7.6-1.22-11.41-10.31-13.71-7.97-3.29,3.35,5.73,14.81,20.59,12.64,5.97-.87,11.84-4.28,12.3-10.75ZM118.33,91.04c1.17-1.62-.57-3.5-1.3-3.14-5.4,2.67-12.65,7.03-17.26.23,2.93-1.12,4.81-1.26,5.15-2.25.59-1.73-.04-3.65-1.08-3.93-2.36-.64-8.67-.86-9.35,2.62-.39,2.01,1.58,2.62,4.03,4.2-3.69,4.26-9.52,2.53-14.44-1.46-2.95,3.43-.32,5.14,1.63,6.89,4.31,3.86,11.96-2.26,14.9-.51,5.67,3.38,13.28,3.5,17.73-2.64Z"/>
  <path class="cls-1" d="M118.33,91.04c-4.45,6.15-12.06,6.02-17.73,2.64-2.94-1.75-10.59,4.37-14.9.51-1.95-1.75-4.58-3.46-1.63-6.89,4.93,3.99,10.76,5.72,14.44,1.46-2.45-1.57-4.42-2.19-4.03-4.2.68-3.48,6.99-3.26,9.35-2.62,1.04.29,1.67,2.2,1.08,3.93-.34,1-2.22,1.14-5.15,2.25,4.62,6.8,11.87,2.44,17.26-.23.74-.37,2.48,1.52,1.3,3.14Z"/>
  <path class="cls-1" d="M92.45,76.51c-7.36,7.99-21.07,7.48-27.92-.41-2.02-2.32-2.43-5.58-.2-7.38,4.01,5.4,8.33,7.93,13.66,8.05,6.16.14,11.02-2.04,14.8-8.35,3.37,1.87,2.39,5.11-.34,8.08Z"/>
  <path class="cls-1" d="M141.1,71.27c-.46,6.46-6.34,9.88-12.3,10.75-14.87,2.17-23.88-9.29-20.59-12.64,2.3-2.34,6.11,6.75,13.71,7.97,7,1.12,11.89-2.45,19.19-6.07Z"/>
</svg>