<?xml version="1.0" encoding="UTF-8"?>
<svg id="Calque_1" data-name="Calque 1" xmlns="http://www.w3.org/2000/svg" viewBox="0 0 201.33 166.67">
  <defs>
    <style>
      .cls-1 {
        fill: #2f2925;
      }

      .cls-2 {
        fill: #fcfcfc;
      }
    </style>
  </defs>
  <path class="cls-1" d="M92.86,159.9c-8.8.3-43.26-11.16-51.21-15.28-17.18-8.91-25.46-28.46-16.99-46.49,1.24-2.65,4.52-4.8,4.24-8.46-.72-9.55.68-18.37,3.42-28.13-9.73-3.08-13.71-10.33-13.11-19.35,1.05-15.84,17.23-25.76,29.65-21.17,4.65,1.72,9.85,6.19,11.77,13.87,23.22-9.92,55.9-12.9,79.24-2.13,1.53-10.19,9.2-14.89,18.02-15.65,10.4-.9,15.07,5,18.91,13.28,11.92,25.7-15.06,26.69-10.5,35.59,2.86,5.58,2.86,11.43,5.18,17.22,5.68,14.24,7.45,31.54-1.71,44.93-6.91,10.1-19,14.11-29.85,18.41-15.57,6.17-30.48,12.79-47.04,13.35ZM133.77,100.94c-5.06-1.22-2.02-8.45-7.13-6.95-1.3.38-2.01,1.65-1.33,3.98,1.29,4.37,5.9,5.7,9.72,5.76,8.27.13,10.06-7.35,9.36-8.83-3.47-7.3-4.83,7.43-10.62,6.04ZM52.06,105.58c5.16.82,8.17-1.99,8.86-6.59.26-1.76.04-2.77-1.2-2.88-4.75-.43-1.36,6.33-6.97,6.56s-3.69-8.31-9.44-5.82c-.27,4.58,3.36,7.89,8.74,8.73ZM112.02,150.49c15.1-4.34,23.16-17.35,18.18-33.05-5.78-18.21-42.84-14.06-57.87-11.13-8.02,1.57-14.62,10.16-15.81,16.34-1.77,9.14,2.33,17.56,9.46,22.73,13.51,9.8,29.79,9.79,46.05,5.12Z"/>
  <path class="cls-2" d="M112.02,150.49c-16.26,4.67-32.54,4.68-46.05-5.12-7.13-5.17-11.23-13.59-9.46-22.73,1.2-6.18,7.8-14.77,15.81-16.34,15.03-2.93,52.09-7.08,57.87,11.13,4.98,15.7-3.08,28.71-18.18,33.05ZM94.41,129.76l9.91-4.66c3.99-1.88,6.27-5.19,5.2-9.51-.8-3.21-4.33-5.91-8.7-5.89s-26.34-3.18-27.31,7.24c-.97,10.37,11.04,8.27,16.74,12.94.93,6.39-.87,13.32,4.81,17.29,1.6-6.15-1.06-11.17-.65-17.41Z"/>
  <path class="cls-2" d="M133.77,100.94c5.79,1.39,7.16-13.34,10.62-6.04.7,1.47-1.09,8.96-9.36,8.83-3.81-.06-8.43-1.39-9.72-5.76-.68-2.33.03-3.6,1.33-3.98,5.11-1.5,2.07,5.73,7.13,6.95Z"/>
  <path class="cls-2" d="M52.06,105.58c-5.38-.85-9.01-4.15-8.74-8.73,5.75-2.48,3.78,6.05,9.44,5.82s2.22-6.99,6.97-6.56c1.24.11,1.46,1.12,1.2,2.88-.69,4.6-3.71,7.41-8.86,6.59Z"/>
  <path class="cls-1" d="M94.41,129.76c-.41,6.24,2.24,11.25.65,17.41-5.69-3.97-3.88-10.9-4.81-17.29-5.7-4.67-17.7-2.57-16.74-12.94.97-10.42,23.06-7.21,27.31-7.24s7.9,2.68,8.7,5.89c1.08,4.32-1.21,7.64-5.2,9.51l-9.91,4.66Z"/>
</svg>