<?xml version="1.0" encoding="UTF-8"?>
<svg id="Calque_1" data-name="Calque 1" xmlns="http://www.w3.org/2000/svg" viewBox="0 0 194.88 122.76">
  <defs>
    <style>
      .cls-1 {
        fill: #2f2925;
      }

      .cls-2 {
        fill: #fcfcfc;
      }
    </style>
  </defs>
  <path class="cls-1" d="M86.11,103.55c-2.81,6.49-1.26,16.82-8.92,18.84-4.28,1.13-8.15-.28-10.86-4.48-2.23-3.46-2.1-7.36-3.78-11.46-3.33,4.6-4.71,9.56-9.57,11.71-2.61,1.16-5.93.82-8.18-.56-6.62-4.04-1.2-12.57-2.78-16.94-6.53,3.98-13.57,8.88-20.53,4.47-4.11-2.61-2.1-9.8,1.18-12.46l12.26-9.98c-6.41-6.69-6.53-14.79-7.62-23.24-2.84-21.85,9.79-40.52,32.51-44.06,16.43-2.57,36.21-2.13,51.23,6.18,19.38,10.73,20.78,44.2,6.68,62.96,7.8,4.84,18.66,12.84,15.46,20.51-2.81,6.72-15.91,2.17-23.03-.67-1.27,4.67.73,9.22-1.59,13.01-3.13,5.11-9.88,3.41-13.52-.27-3.88-3.92-5.51-7.97-8.95-13.53ZM99.19,77.47c10.27-4.7,12.87-18.32,10.59-26.87-2.58-9.67-8.39-17.45-19.2-19.96-8.83-2.05-18.83-2.48-27.5-.93-14.65,2.62-22.3,14.11-20.7,28.41,1.12,10.05,5.84,18.84,17.25,20.94s27.56,3.91,39.56-1.58Z"/>
  <path class="cls-2" d="M99.19,77.47c-12.01,5.49-27.73,3.76-39.56,1.58s-16.13-10.89-17.25-20.94c-1.6-14.3,6.05-25.79,20.7-28.41,8.68-1.55,18.67-1.12,27.5.93,10.8,2.51,16.62,10.29,19.2,19.96,2.28,8.55-.32,22.18-10.59,26.87ZM87.97,43.49c-2.4-5.4-6.89-9.07-11.45-9.38s-9.69,2.23-12.51,6.84c-7.19,11.77-2.19,29.23,11.04,34.66,9.02,3.71,18.46-19.65,12.92-32.12Z"/>
  <path class="cls-1" d="M87.97,43.49c5.54,12.47-3.9,35.83-12.92,32.12-13.23-5.44-18.23-22.89-11.04-34.66,2.82-4.61,7.85-7.17,12.51-6.84s9.05,3.99,11.45,9.38Z"/>
</svg>